solid OpenSCAD_Model
  facet normal -0.866019 -0.500011 0
    outer loop
      vertex 36.5 35 0
      vertex 35.75 36.299 2
      vertex 35.75 36.299 0
    endloop
  endfacet
  facet normal -0.866019 -0.500011 0
    outer loop
      vertex 35.75 36.299 2
      vertex 36.5 35 0
      vertex 36.5 35 2
    endloop
  endfacet
  facet normal 0 1 -0
    outer loop
      vertex 35.75 33.701 0
      vertex 34.25 33.701 2
      vertex 35.75 33.701 2
    endloop
  endfacet
  facet normal 0 1 0
    outer loop
      vertex 34.25 33.701 2
      vertex 35.75 33.701 0
      vertex 34.25 33.701 0
    endloop
  endfacet
  facet normal 0.866019 -0.500011 0
    outer loop
      vertex 33.5 35 2
      vertex 34.25 36.299 0
      vertex 34.25 36.299 2
    endloop
  endfacet
  facet normal 0.866019 -0.500011 0
    outer loop
      vertex 34.25 36.299 0
      vertex 33.5 35 2
      vertex 33.5 35 0
    endloop
  endfacet
  facet normal 0 -1 0
    outer loop
      vertex 34.25 36.299 0
      vertex 35.75 36.299 2
      vertex 34.25 36.299 2
    endloop
  endfacet
  facet normal 0 -1 -0
    outer loop
      vertex 35.75 36.299 2
      vertex 34.25 36.299 0
      vertex 35.75 36.299 0
    endloop
  endfacet
  facet normal 0.866019 0.500011 0
    outer loop
      vertex 34.25 33.701 2
      vertex 33.5 35 0
      vertex 33.5 35 2
    endloop
  endfacet
  facet normal 0.866019 0.500011 0
    outer loop
      vertex 33.5 35 0
      vertex 34.25 33.701 2
      vertex 34.25 33.701 0
    endloop
  endfacet
  facet normal -0.866019 0.500011 0
    outer loop
      vertex 35.75 33.701 0
      vertex 36.5 35 2
      vertex 36.5 35 0
    endloop
  endfacet
  facet normal -0.866019 0.500011 0
    outer loop
      vertex 36.5 35 2
      vertex 35.75 33.701 0
      vertex 35.75 33.701 2
    endloop
  endfacet
  facet normal -0.866019 -0.500011 0
    outer loop
      vertex 36.5 15 0
      vertex 35.75 16.299 2
      vertex 35.75 16.299 0
    endloop
  endfacet
  facet normal -0.866019 -0.500011 0
    outer loop
      vertex 35.75 16.299 2
      vertex 36.5 15 0
      vertex 36.5 15 2
    endloop
  endfacet
  facet normal 0 1 -0
    outer loop
      vertex 35.75 13.701 0
      vertex 34.25 13.701 2
      vertex 35.75 13.701 2
    endloop
  endfacet
  facet normal 0 1 0
    outer loop
      vertex 34.25 13.701 2
      vertex 35.75 13.701 0
      vertex 34.25 13.701 0
    endloop
  endfacet
  facet normal 0.866019 -0.500011 0
    outer loop
      vertex 33.5 15 2
      vertex 34.25 16.299 0
      vertex 34.25 16.299 2
    endloop
  endfacet
  facet normal 0.866019 -0.500011 0
    outer loop
      vertex 34.25 16.299 0
      vertex 33.5 15 2
      vertex 33.5 15 0
    endloop
  endfacet
  facet normal 0 -1 0
    outer loop
      vertex 34.25 16.299 0
      vertex 35.75 16.299 2
      vertex 34.25 16.299 2
    endloop
  endfacet
  facet normal 0 -1 -0
    outer loop
      vertex 35.75 16.299 2
      vertex 34.25 16.299 0
      vertex 35.75 16.299 0
    endloop
  endfacet
  facet normal 0.866019 0.500011 0
    outer loop
      vertex 34.25 13.701 2
      vertex 33.5 15 0
      vertex 33.5 15 2
    endloop
  endfacet
  facet normal 0.866019 0.500011 0
    outer loop
      vertex 33.5 15 0
      vertex 34.25 13.701 2
      vertex 34.25 13.701 0
    endloop
  endfacet
  facet normal -0.866019 0.500011 0
    outer loop
      vertex 35.75 13.701 0
      vertex 36.5 15 2
      vertex 36.5 15 0
    endloop
  endfacet
  facet normal -0.866019 0.500011 0
    outer loop
      vertex 36.5 15 2
      vertex 35.75 13.701 0
      vertex 35.75 13.701 2
    endloop
  endfacet
  facet normal -1 0 0
    outer loop
      vertex 0 0 0
      vertex 0 50 2
      vertex 0 50 0
    endloop
  endfacet
  facet normal -1 -0 0
    outer loop
      vertex 0 50 2
      vertex 0 0 0
      vertex 0 0 2
    endloop
  endfacet
  facet normal -0 0 1
    outer loop
      vertex 35.75 33.701 2
      vertex 36.5 15 2
      vertex 36.5 35 2
    endloop
  endfacet
  facet normal 0 0 1
    outer loop
      vertex 35.75 33.701 2
      vertex 35.75 16.299 2
      vertex 36.5 15 2
    endloop
  endfacet
  facet normal -0 0 1
    outer loop
      vertex 34.25 33.701 2
      vertex 35.75 16.299 2
      vertex 35.75 33.701 2
    endloop
  endfacet
  facet normal 0 0 1
    outer loop
      vertex 34.25 33.701 2
      vertex 34.25 16.299 2
      vertex 35.75 16.299 2
    endloop
  endfacet
  facet normal 0 0 1
    outer loop
      vertex 33.5 35 2
      vertex 34.25 16.299 2
      vertex 34.25 33.701 2
    endloop
  endfacet
  facet normal 0 0 1
    outer loop
      vertex 34.25 16.299 2
      vertex 33.5 35 2
      vertex 33.5 15 2
    endloop
  endfacet
  facet normal 0 0 1
    outer loop
      vertex 40 50 2
      vertex 36.5 35 2
      vertex 40 0 2
    endloop
  endfacet
  facet normal 0 0 1
    outer loop
      vertex 40 50 2
      vertex 35.75 36.299 2
      vertex 36.5 35 2
    endloop
  endfacet
  facet normal 0 0 1
    outer loop
      vertex 40 50 2
      vertex 34.25 36.299 2
      vertex 35.75 36.299 2
    endloop
  endfacet
  facet normal -0 0 1
    outer loop
      vertex 0 50 2
      vertex 34.25 36.299 2
      vertex 40 50 2
    endloop
  endfacet
  facet normal 0 0 1
    outer loop
      vertex 33.5 35 2
      vertex 0 50 2
      vertex 33.5 15 2
    endloop
  endfacet
  facet normal 0 0 1
    outer loop
      vertex 34.25 36.299 2
      vertex 0 50 2
      vertex 33.5 35 2
    endloop
  endfacet
  facet normal -0 0 1
    outer loop
      vertex 36.5 15 2
      vertex 40 0 2
      vertex 36.5 35 2
    endloop
  endfacet
  facet normal -0 0 1
    outer loop
      vertex 35.75 13.701 2
      vertex 40 0 2
      vertex 36.5 15 2
    endloop
  endfacet
  facet normal -0 0 1
    outer loop
      vertex 34.25 13.701 2
      vertex 40 0 2
      vertex 35.75 13.701 2
    endloop
  endfacet
  facet normal 0 0 1
    outer loop
      vertex 0 0 2
      vertex 34.25 13.701 2
      vertex 33.5 15 2
    endloop
  endfacet
  facet normal 0 0 1
    outer loop
      vertex 0 0 2
      vertex 33.5 15 2
      vertex 0 50 2
    endloop
  endfacet
  facet normal 0 0 1
    outer loop
      vertex 34.25 13.701 2
      vertex 0 0 2
      vertex 40 0 2
    endloop
  endfacet
  facet normal 1 -0 0
    outer loop
      vertex 40 0 2
      vertex 40 50 0
      vertex 40 50 2
    endloop
  endfacet
  facet normal 1 0 0
    outer loop
      vertex 40 50 0
      vertex 40 0 2
      vertex 40 0 0
    endloop
  endfacet
  facet normal 0 1 -0
    outer loop
      vertex 40 50 0
      vertex 0 50 2
      vertex 40 50 2
    endloop
  endfacet
  facet normal 0 1 0
    outer loop
      vertex 0 50 2
      vertex 40 50 0
      vertex 0 50 0
    endloop
  endfacet
  facet normal 0 0 -1
    outer loop
      vertex 35.75 16.299 0
      vertex 36.5 35 0
      vertex 36.5 15 0
    endloop
  endfacet
  facet normal 0 0 -1
    outer loop
      vertex 35.75 16.299 0
      vertex 35.75 33.701 0
      vertex 36.5 35 0
    endloop
  endfacet
  facet normal 0 0 -1
    outer loop
      vertex 34.25 16.299 0
      vertex 35.75 33.701 0
      vertex 35.75 16.299 0
    endloop
  endfacet
  facet normal 0 0 -1
    outer loop
      vertex 34.25 16.299 0
      vertex 34.25 33.701 0
      vertex 35.75 33.701 0
    endloop
  endfacet
  facet normal 0 0 -1
    outer loop
      vertex 33.5 15 0
      vertex 34.25 33.701 0
      vertex 34.25 16.299 0
    endloop
  endfacet
  facet normal -0 0 -1
    outer loop
      vertex 34.25 33.701 0
      vertex 33.5 15 0
      vertex 33.5 35 0
    endloop
  endfacet
  facet normal 0 0 -1
    outer loop
      vertex 40 0 0
      vertex 36.5 15 0
      vertex 40 50 0
    endloop
  endfacet
  facet normal 0 0 -1
    outer loop
      vertex 40 0 0
      vertex 35.75 13.701 0
      vertex 36.5 15 0
    endloop
  endfacet
  facet normal 0 0 -1
    outer loop
      vertex 40 0 0
      vertex 34.25 13.701 0
      vertex 35.75 13.701 0
    endloop
  endfacet
  facet normal 0 0 -1
    outer loop
      vertex 0 0 0
      vertex 34.25 13.701 0
      vertex 40 0 0
    endloop
  endfacet
  facet normal -0 0 -1
    outer loop
      vertex 33.5 15 0
      vertex 0 0 0
      vertex 33.5 35 0
    endloop
  endfacet
  facet normal -0 0 -1
    outer loop
      vertex 34.25 13.701 0
      vertex 0 0 0
      vertex 33.5 15 0
    endloop
  endfacet
  facet normal 0 0 -1
    outer loop
      vertex 36.5 35 0
      vertex 40 50 0
      vertex 36.5 15 0
    endloop
  endfacet
  facet normal 0 0 -1
    outer loop
      vertex 35.75 36.299 0
      vertex 40 50 0
      vertex 36.5 35 0
    endloop
  endfacet
  facet normal 0 0 -1
    outer loop
      vertex 34.25 36.299 0
      vertex 40 50 0
      vertex 35.75 36.299 0
    endloop
  endfacet
  facet normal 0 0 -1
    outer loop
      vertex 0 50 0
      vertex 34.25 36.299 0
      vertex 33.5 35 0
    endloop
  endfacet
  facet normal 0 0 -1
    outer loop
      vertex 0 50 0
      vertex 33.5 35 0
      vertex 0 0 0
    endloop
  endfacet
  facet normal 0 0 -1
    outer loop
      vertex 34.25 36.299 0
      vertex 0 50 0
      vertex 40 50 0
    endloop
  endfacet
  facet normal 0 -1 0
    outer loop
      vertex 0 0 0
      vertex 40 0 2
      vertex 0 0 2
    endloop
  endfacet
  facet normal 0 -1 -0
    outer loop
      vertex 40 0 2
      vertex 0 0 0
      vertex 40 0 0
    endloop
  endfacet
endsolid OpenSCAD_Model
