solid OpenSCAD_Model
  facet normal 0.987686 0.156447 0
    outer loop
      vertex 5.95269 0.751999 3.5
      vertex 5.89372 1.12429 -3.5
      vertex 5.89372 1.12429 3.5
    endloop
  endfacet
  facet normal 0.987686 0.156447 0
    outer loop
      vertex 5.89372 1.12429 -3.5
      vertex 5.95269 0.751999 3.5
      vertex 5.95269 0.751999 -3.5
    endloop
  endfacet
  facet normal 0.999507 0.0314118 0
    outer loop
      vertex 6 0 3.5
      vertex 5.98816 0.376742 -3.5
      vertex 5.98816 0.376742 3.5
    endloop
  endfacet
  facet normal 0.999507 0.0314118 0
    outer loop
      vertex 5.98816 0.376742 -3.5
      vertex 6 0 3.5
      vertex 6 0 -3.5
    endloop
  endfacet
  facet normal -0.999507 0.0314118 0
    outer loop
      vertex -6 0 -3.5
      vertex -5.98816 0.376742 3.5
      vertex -5.98816 0.376742 -3.5
    endloop
  endfacet
  facet normal -0.999507 0.0314118 0
    outer loop
      vertex -5.98816 0.376742 3.5
      vertex -6 0 -3.5
      vertex -6 0 3.5
    endloop
  endfacet
  facet normal 0.0314118 0.999507 -0
    outer loop
      vertex 0.376742 5.98816 -3.5
      vertex 0 6 3.5
      vertex 0.376742 5.98816 3.5
    endloop
  endfacet
  facet normal 0.0314118 0.999507 0
    outer loop
      vertex 0 6 3.5
      vertex 0.376742 5.98816 -3.5
      vertex 0 6 -3.5
    endloop
  endfacet
  facet normal 0.707107 0.707107 0
    outer loop
      vertex 4.37381 4.10728 3.5
      vertex 4.10728 4.37381 -3.5
      vertex 4.10728 4.37381 3.5
    endloop
  endfacet
  facet normal 0.707107 0.707107 0
    outer loop
      vertex 4.10728 4.37381 -3.5
      vertex 4.37381 4.10728 3.5
      vertex 4.37381 4.10728 -3.5
    endloop
  endfacet
  facet normal -0.661314 0.75011 0
    outer loop
      vertex -3.82454 4.62308 -3.5
      vertex -4.10728 4.37381 3.5
      vertex -3.82454 4.62308 3.5
    endloop
  endfacet
  facet normal -0.661314 0.75011 0
    outer loop
      vertex -4.10728 4.37381 3.5
      vertex -3.82454 4.62308 -3.5
      vertex -4.10728 4.37381 -3.5
    endloop
  endfacet
  facet normal -0.338734 0.940882 0
    outer loop
      vertex -1.8541 5.70634 -3.5
      vertex -2.20875 5.57866 3.5
      vertex -1.8541 5.70634 3.5
    endloop
  endfacet
  facet normal -0.338734 0.940882 0
    outer loop
      vertex -2.20875 5.57866 3.5
      vertex -1.8541 5.70634 -3.5
      vertex -2.20875 5.57866 -3.5
    endloop
  endfacet
  facet normal 0.917752 0.397154 0
    outer loop
      vertex 5.57866 2.20875 3.5
      vertex 5.42896 2.55468 -3.5
      vertex 5.42896 2.55468 3.5
    endloop
  endfacet
  facet normal 0.917752 0.397154 0
    outer loop
      vertex 5.42896 2.55468 -3.5
      vertex 5.57866 2.20875 3.5
      vertex 5.57866 2.20875 -3.5
    endloop
  endfacet
  facet normal -0.827075 0.562092 0
    outer loop
      vertex -5.06597 3.21496 -3.5
      vertex -4.8541 3.52671 3.5
      vertex -4.8541 3.52671 -3.5
    endloop
  endfacet
  facet normal -0.827075 0.562092 0
    outer loop
      vertex -4.8541 3.52671 3.5
      vertex -5.06597 3.21496 -3.5
      vertex -5.06597 3.21496 3.5
    endloop
  endfacet
  facet normal -0.75011 0.661314 0
    outer loop
      vertex -4.62308 3.82454 -3.5
      vertex -4.37381 4.10728 3.5
      vertex -4.37381 4.10728 -3.5
    endloop
  endfacet
  facet normal -0.75011 0.661314 0
    outer loop
      vertex -4.37381 4.10728 3.5
      vertex -4.62308 3.82454 -3.5
      vertex -4.62308 3.82454 3.5
    endloop
  endfacet
  facet normal 0.891005 -0.453993 0
    outer loop
      vertex 5.25784 -2.89052 3.5
      vertex 5.42896 -2.55468 -3.5
      vertex 5.42896 -2.55468 3.5
    endloop
  endfacet
  facet normal 0.891005 -0.453993 0
    outer loop
      vertex 5.42896 -2.55468 -3.5
      vertex 5.25784 -2.89052 3.5
      vertex 5.25784 -2.89052 -3.5
    endloop
  endfacet
  facet normal 0.218133 -0.975919 0
    outer loop
      vertex 1.12429 -5.89372 -3.5
      vertex 1.49214 -5.8115 3.5
      vertex 1.12429 -5.89372 3.5
    endloop
  endfacet
  facet normal 0.218133 -0.975919 0
    outer loop
      vertex 1.49214 -5.8115 3.5
      vertex 1.12429 -5.89372 -3.5
      vertex 1.49214 -5.8115 -3.5
    endloop
  endfacet
  facet normal 0.707107 -0.707107 0
    outer loop
      vertex 4.10728 -4.37381 3.5
      vertex 4.37381 -4.10728 -3.5
      vertex 4.37381 -4.10728 3.5
    endloop
  endfacet
  facet normal 0.707107 -0.707107 0
    outer loop
      vertex 4.37381 -4.10728 -3.5
      vertex 4.10728 -4.37381 3.5
      vertex 4.10728 -4.37381 -3.5
    endloop
  endfacet
  facet normal 0.999507 -0.0314118 0
    outer loop
      vertex 5.98816 -0.376742 3.5
      vertex 6 0 -3.5
      vertex 6 0 3.5
    endloop
  endfacet
  facet normal 0.999507 -0.0314118 0
    outer loop
      vertex 6 0 -3.5
      vertex 5.98816 -0.376742 3.5
      vertex 5.98816 -0.376742 -3.5
    endloop
  endfacet
  facet normal -0.397154 -0.917752 0
    outer loop
      vertex -2.55468 -5.42896 -3.5
      vertex -2.20875 -5.57866 3.5
      vertex -2.55468 -5.42896 3.5
    endloop
  endfacet
  facet normal -0.397154 -0.917752 -0
    outer loop
      vertex -2.20875 -5.57866 3.5
      vertex -2.55468 -5.42896 -3.5
      vertex -2.20875 -5.57866 -3.5
    endloop
  endfacet
  facet normal -0.790156 -0.612906 0
    outer loop
      vertex -4.62308 -3.82454 -3.5
      vertex -4.8541 -3.52671 3.5
      vertex -4.8541 -3.52671 -3.5
    endloop
  endfacet
  facet normal -0.790156 -0.612906 0
    outer loop
      vertex -4.8541 -3.52671 3.5
      vertex -4.62308 -3.82454 -3.5
      vertex -4.62308 -3.82454 3.5
    endloop
  endfacet
  facet normal -0.940882 -0.338734 0
    outer loop
      vertex -5.57866 -2.20875 -3.5
      vertex -5.70634 -1.8541 3.5
      vertex -5.70634 -1.8541 -3.5
    endloop
  endfacet
  facet normal -0.940882 -0.338734 0
    outer loop
      vertex -5.70634 -1.8541 3.5
      vertex -5.57866 -2.20875 -3.5
      vertex -5.57866 -2.20875 3.5
    endloop
  endfacet
  facet normal 0.975919 0.218133 0
    outer loop
      vertex 5.89372 1.12429 3.5
      vertex 5.8115 1.49214 -3.5
      vertex 5.8115 1.49214 3.5
    endloop
  endfacet
  facet normal 0.975919 0.218133 0
    outer loop
      vertex 5.8115 1.49214 -3.5
      vertex 5.89372 1.12429 3.5
      vertex 5.89372 1.12429 -3.5
    endloop
  endfacet
  facet normal 0.960293 0.278993 0
    outer loop
      vertex 5.8115 1.49214 3.5
      vertex 5.70634 1.8541 -3.5
      vertex 5.70634 1.8541 3.5
    endloop
  endfacet
  facet normal 0.960293 0.278993 0
    outer loop
      vertex 5.70634 1.8541 -3.5
      vertex 5.8115 1.49214 3.5
      vertex 5.8115 1.49214 -3.5
    endloop
  endfacet
  facet normal 0.891005 0.453993 0
    outer loop
      vertex 5.42896 2.55468 3.5
      vertex 5.25784 2.89052 -3.5
      vertex 5.25784 2.89052 3.5
    endloop
  endfacet
  facet normal 0.891005 0.453993 0
    outer loop
      vertex 5.25784 2.89052 -3.5
      vertex 5.42896 2.55468 3.5
      vertex 5.42896 2.55468 -3.5
    endloop
  endfacet
  facet normal 0.278993 0.960293 -0
    outer loop
      vertex 1.8541 5.70634 -3.5
      vertex 1.49214 5.8115 3.5
      vertex 1.8541 5.70634 3.5
    endloop
  endfacet
  facet normal 0.278993 0.960293 0
    outer loop
      vertex 1.49214 5.8115 3.5
      vertex 1.8541 5.70634 -3.5
      vertex 1.49214 5.8115 -3.5
    endloop
  endfacet
  facet normal 0.338734 0.940882 -0
    outer loop
      vertex 2.20875 5.57866 -3.5
      vertex 1.8541 5.70634 3.5
      vertex 2.20875 5.57866 3.5
    endloop
  endfacet
  facet normal 0.338734 0.940882 0
    outer loop
      vertex 1.8541 5.70634 3.5
      vertex 2.20875 5.57866 -3.5
      vertex 1.8541 5.70634 -3.5
    endloop
  endfacet
  facet normal 0.0941024 0.995563 -0
    outer loop
      vertex 0.751999 5.95269 -3.5
      vertex 0.376742 5.98816 3.5
      vertex 0.751999 5.95269 3.5
    endloop
  endfacet
  facet normal 0.0941024 0.995563 0
    outer loop
      vertex 0.376742 5.98816 3.5
      vertex 0.751999 5.95269 -3.5
      vertex 0.376742 5.98816 -3.5
    endloop
  endfacet
  facet normal 0.562092 0.827075 -0
    outer loop
      vertex 3.52671 4.8541 -3.5
      vertex 3.21496 5.06597 3.5
      vertex 3.52671 4.8541 3.5
    endloop
  endfacet
  facet normal 0.562092 0.827075 0
    outer loop
      vertex 3.21496 5.06597 3.5
      vertex 3.52671 4.8541 -3.5
      vertex 3.21496 5.06597 -3.5
    endloop
  endfacet
  facet normal 0.509035 0.860746 -0
    outer loop
      vertex 3.21496 5.06597 -3.5
      vertex 2.89052 5.25784 3.5
      vertex 3.21496 5.06597 3.5
    endloop
  endfacet
  facet normal 0.509035 0.860746 0
    outer loop
      vertex 2.89052 5.25784 3.5
      vertex 3.21496 5.06597 -3.5
      vertex 2.89052 5.25784 -3.5
    endloop
  endfacet
  facet normal -0.960293 0.278993 0
    outer loop
      vertex -5.8115 1.49214 -3.5
      vertex -5.70634 1.8541 3.5
      vertex -5.70634 1.8541 -3.5
    endloop
  endfacet
  facet normal -0.960293 0.278993 0
    outer loop
      vertex -5.70634 1.8541 3.5
      vertex -5.8115 1.49214 -3.5
      vertex -5.8115 1.49214 3.5
    endloop
  endfacet
  facet normal -0.707107 0.707107 0
    outer loop
      vertex -4.37381 4.10728 -3.5
      vertex -4.10728 4.37381 3.5
      vertex -4.10728 4.37381 -3.5
    endloop
  endfacet
  facet normal -0.707107 0.707107 0
    outer loop
      vertex -4.10728 4.37381 3.5
      vertex -4.37381 4.10728 -3.5
      vertex -4.37381 4.10728 3.5
    endloop
  endfacet
  facet normal -0.891005 0.453993 0
    outer loop
      vertex -5.42896 2.55468 -3.5
      vertex -5.25784 2.89052 3.5
      vertex -5.25784 2.89052 -3.5
    endloop
  endfacet
  facet normal -0.891005 0.453993 0
    outer loop
      vertex -5.25784 2.89052 3.5
      vertex -5.42896 2.55468 -3.5
      vertex -5.42896 2.55468 3.5
    endloop
  endfacet
  facet normal -0.860746 0.509035 0
    outer loop
      vertex -5.25784 2.89052 -3.5
      vertex -5.06597 3.21496 3.5
      vertex -5.06597 3.21496 -3.5
    endloop
  endfacet
  facet normal -0.860746 0.509035 0
    outer loop
      vertex -5.06597 3.21496 3.5
      vertex -5.25784 2.89052 -3.5
      vertex -5.25784 2.89052 3.5
    endloop
  endfacet
  facet normal -0.940882 0.338734 0
    outer loop
      vertex -5.70634 1.8541 -3.5
      vertex -5.57866 2.20875 3.5
      vertex -5.57866 2.20875 -3.5
    endloop
  endfacet
  facet normal -0.940882 0.338734 0
    outer loop
      vertex -5.57866 2.20875 3.5
      vertex -5.70634 1.8541 -3.5
      vertex -5.70634 1.8541 3.5
    endloop
  endfacet
  facet normal -0.995563 0.0941024 0
    outer loop
      vertex -5.98816 0.376742 -3.5
      vertex -5.95269 0.751999 3.5
      vertex -5.95269 0.751999 -3.5
    endloop
  endfacet
  facet normal -0.995563 0.0941024 0
    outer loop
      vertex -5.95269 0.751999 3.5
      vertex -5.98816 0.376742 -3.5
      vertex -5.98816 0.376742 3.5
    endloop
  endfacet
  facet normal -0.453993 0.891005 0
    outer loop
      vertex -2.55468 5.42896 -3.5
      vertex -2.89052 5.25784 3.5
      vertex -2.55468 5.42896 3.5
    endloop
  endfacet
  facet normal -0.453993 0.891005 0
    outer loop
      vertex -2.89052 5.25784 3.5
      vertex -2.55468 5.42896 -3.5
      vertex -2.89052 5.25784 -3.5
    endloop
  endfacet
  facet normal -0.509035 0.860746 0
    outer loop
      vertex -2.89052 5.25784 -3.5
      vertex -3.21496 5.06597 3.5
      vertex -2.89052 5.25784 3.5
    endloop
  endfacet
  facet normal -0.509035 0.860746 0
    outer loop
      vertex -3.21496 5.06597 3.5
      vertex -2.89052 5.25784 -3.5
      vertex -3.21496 5.06597 -3.5
    endloop
  endfacet
  facet normal -0.562092 0.827075 0
    outer loop
      vertex -3.21496 5.06597 -3.5
      vertex -3.52671 4.8541 3.5
      vertex -3.21496 5.06597 3.5
    endloop
  endfacet
  facet normal -0.562092 0.827075 0
    outer loop
      vertex -3.52671 4.8541 3.5
      vertex -3.21496 5.06597 -3.5
      vertex -3.52671 4.8541 -3.5
    endloop
  endfacet
  facet normal -0.278993 0.960293 0
    outer loop
      vertex -1.49214 5.8115 -3.5
      vertex -1.8541 5.70634 3.5
      vertex -1.49214 5.8115 3.5
    endloop
  endfacet
  facet normal -0.278993 0.960293 0
    outer loop
      vertex -1.8541 5.70634 3.5
      vertex -1.49214 5.8115 -3.5
      vertex -1.8541 5.70634 -3.5
    endloop
  endfacet
  facet normal -0.0314118 0.999507 0
    outer loop
      vertex 0 6 -3.5
      vertex -0.376742 5.98816 3.5
      vertex 0 6 3.5
    endloop
  endfacet
  facet normal -0.0314118 0.999507 0
    outer loop
      vertex -0.376742 5.98816 3.5
      vertex 0 6 -3.5
      vertex -0.376742 5.98816 -3.5
    endloop
  endfacet
  facet normal 0.960293 -0.278993 0
    outer loop
      vertex 5.70634 -1.8541 3.5
      vertex 5.8115 -1.49214 -3.5
      vertex 5.8115 -1.49214 3.5
    endloop
  endfacet
  facet normal 0.960293 -0.278993 0
    outer loop
      vertex 5.8115 -1.49214 -3.5
      vertex 5.70634 -1.8541 3.5
      vertex 5.70634 -1.8541 -3.5
    endloop
  endfacet
  facet normal 0.0941024 -0.995563 0
    outer loop
      vertex 0.376742 -5.98816 -3.5
      vertex 0.751999 -5.95269 3.5
      vertex 0.376742 -5.98816 3.5
    endloop
  endfacet
  facet normal 0.0941024 -0.995563 0
    outer loop
      vertex 0.751999 -5.95269 3.5
      vertex 0.376742 -5.98816 -3.5
      vertex 0.751999 -5.95269 -3.5
    endloop
  endfacet
  facet normal 0.0314118 -0.999507 0
    outer loop
      vertex 0 -6 -3.5
      vertex 0.376742 -5.98816 3.5
      vertex 0 -6 3.5
    endloop
  endfacet
  facet normal 0.0314118 -0.999507 0
    outer loop
      vertex 0.376742 -5.98816 3.5
      vertex 0 -6 -3.5
      vertex 0.376742 -5.98816 -3.5
    endloop
  endfacet
  facet normal 0.453993 -0.891005 0
    outer loop
      vertex 2.55468 -5.42896 -3.5
      vertex 2.89052 -5.25784 3.5
      vertex 2.55468 -5.42896 3.5
    endloop
  endfacet
  facet normal 0.453993 -0.891005 0
    outer loop
      vertex 2.89052 -5.25784 3.5
      vertex 2.55468 -5.42896 -3.5
      vertex 2.89052 -5.25784 -3.5
    endloop
  endfacet
  facet normal 0.509035 -0.860746 0
    outer loop
      vertex 2.89052 -5.25784 -3.5
      vertex 3.21496 -5.06597 3.5
      vertex 2.89052 -5.25784 3.5
    endloop
  endfacet
  facet normal 0.509035 -0.860746 0
    outer loop
      vertex 3.21496 -5.06597 3.5
      vertex 2.89052 -5.25784 -3.5
      vertex 3.21496 -5.06597 -3.5
    endloop
  endfacet
  facet normal 0.940882 -0.338734 0
    outer loop
      vertex 5.57866 -2.20875 3.5
      vertex 5.70634 -1.8541 -3.5
      vertex 5.70634 -1.8541 3.5
    endloop
  endfacet
  facet normal 0.940882 -0.338734 0
    outer loop
      vertex 5.70634 -1.8541 -3.5
      vertex 5.57866 -2.20875 3.5
      vertex 5.57866 -2.20875 -3.5
    endloop
  endfacet
  facet normal -0.278993 -0.960293 0
    outer loop
      vertex -1.8541 -5.70634 -3.5
      vertex -1.49214 -5.8115 3.5
      vertex -1.8541 -5.70634 3.5
    endloop
  endfacet
  facet normal -0.278993 -0.960293 -0
    outer loop
      vertex -1.49214 -5.8115 3.5
      vertex -1.8541 -5.70634 -3.5
      vertex -1.49214 -5.8115 -3.5
    endloop
  endfacet
  facet normal -0.707107 -0.707107 0
    outer loop
      vertex -4.10728 -4.37381 -3.5
      vertex -4.37381 -4.10728 3.5
      vertex -4.37381 -4.10728 -3.5
    endloop
  endfacet
  facet normal -0.707107 -0.707107 0
    outer loop
      vertex -4.37381 -4.10728 3.5
      vertex -4.10728 -4.37381 -3.5
      vertex -4.10728 -4.37381 3.5
    endloop
  endfacet
  facet normal -0.661314 -0.75011 0
    outer loop
      vertex -4.10728 -4.37381 -3.5
      vertex -3.82454 -4.62308 3.5
      vertex -4.10728 -4.37381 3.5
    endloop
  endfacet
  facet normal -0.661314 -0.75011 -0
    outer loop
      vertex -3.82454 -4.62308 3.5
      vertex -4.10728 -4.37381 -3.5
      vertex -3.82454 -4.62308 -3.5
    endloop
  endfacet
  facet normal -0.0314118 -0.999507 0
    outer loop
      vertex -0.376742 -5.98816 -3.5
      vertex 0 -6 3.5
      vertex -0.376742 -5.98816 3.5
    endloop
  endfacet
  facet normal -0.0314118 -0.999507 -0
    outer loop
      vertex 0 -6 3.5
      vertex -0.376742 -5.98816 -3.5
      vertex 0 -6 -3.5
    endloop
  endfacet
  facet normal -0.860746 -0.509035 0
    outer loop
      vertex -5.06597 -3.21496 -3.5
      vertex -5.25784 -2.89052 3.5
      vertex -5.25784 -2.89052 -3.5
    endloop
  endfacet
  facet normal -0.860746 -0.509035 0
    outer loop
      vertex -5.25784 -2.89052 3.5
      vertex -5.06597 -3.21496 -3.5
      vertex -5.06597 -3.21496 3.5
    endloop
  endfacet
  facet normal -0.827075 -0.562092 0
    outer loop
      vertex -4.8541 -3.52671 -3.5
      vertex -5.06597 -3.21496 3.5
      vertex -5.06597 -3.21496 -3.5
    endloop
  endfacet
  facet normal -0.827075 -0.562092 0
    outer loop
      vertex -5.06597 -3.21496 3.5
      vertex -4.8541 -3.52671 -3.5
      vertex -4.8541 -3.52671 3.5
    endloop
  endfacet
  facet normal -0.999507 -0.0314118 0
    outer loop
      vertex -5.98816 -0.376742 -3.5
      vertex -6 0 3.5
      vertex -6 0 -3.5
    endloop
  endfacet
  facet normal -0.999507 -0.0314118 0
    outer loop
      vertex -6 0 3.5
      vertex -5.98816 -0.376742 -3.5
      vertex -5.98816 -0.376742 3.5
    endloop
  endfacet
  facet normal 0 0 -1
    outer loop
      vertex 1.55 -2.08129 -3.5
      vertex 6 0 -3.5
      vertex 5.98816 -0.376742 -3.5
    endloop
  endfacet
  facet normal 0 0 -1
    outer loop
      vertex 1.55 -2.08129 -3.5
      vertex 5.98816 -0.376742 -3.5
      vertex 5.95269 -0.751999 -3.5
    endloop
  endfacet
  facet normal 0 0 -1
    outer loop
      vertex 1.55 2.08129 -3.5
      vertex 6 0 -3.5
      vertex 1.55 -2.08129 -3.5
    endloop
  endfacet
  facet normal 0 0 -1
    outer loop
      vertex 1.55 -2.08129 -3.5
      vertex 5.95269 -0.751999 -3.5
      vertex 5.89372 -1.12429 -3.5
    endloop
  endfacet
  facet normal 0 0 -1
    outer loop
      vertex 6 0 -3.5
      vertex 1.55 2.08129 -3.5
      vertex 5.98816 0.376742 -3.5
    endloop
  endfacet
  facet normal 0 0 -1
    outer loop
      vertex 1.55 -2.08129 -3.5
      vertex 5.89372 -1.12429 -3.5
      vertex 5.8115 -1.49214 -3.5
    endloop
  endfacet
  facet normal 0 0 -1
    outer loop
      vertex 5.98816 0.376742 -3.5
      vertex 1.55 2.08129 -3.5
      vertex 5.95269 0.751999 -3.5
    endloop
  endfacet
  facet normal 0 0 -1
    outer loop
      vertex 1.55 -2.08129 -3.5
      vertex 5.8115 -1.49214 -3.5
      vertex 5.70634 -1.8541 -3.5
    endloop
  endfacet
  facet normal 0 0 -1
    outer loop
      vertex 5.95269 0.751999 -3.5
      vertex 1.55 2.08129 -3.5
      vertex 5.89372 1.12429 -3.5
    endloop
  endfacet
  facet normal 0 0 -1
    outer loop
      vertex 1.55 -2.08129 -3.5
      vertex 5.70634 -1.8541 -3.5
      vertex 5.57866 -2.20875 -3.5
    endloop
  endfacet
  facet normal 0 0 -1
    outer loop
      vertex 5.89372 1.12429 -3.5
      vertex 1.55 2.08129 -3.5
      vertex 5.8115 1.49214 -3.5
    endloop
  endfacet
  facet normal 0 0 -1
    outer loop
      vertex 1.55 -2.08129 -3.5
      vertex 5.57866 -2.20875 -3.5
      vertex 5.42896 -2.55468 -3.5
    endloop
  endfacet
  facet normal 0 0 -1
    outer loop
      vertex 5.8115 1.49214 -3.5
      vertex 1.55 2.08129 -3.5
      vertex 5.70634 1.8541 -3.5
    endloop
  endfacet
  facet normal 0 0 -1
    outer loop
      vertex 1.55 -2.08129 -3.5
      vertex 5.42896 -2.55468 -3.5
      vertex 5.25784 -2.89052 -3.5
    endloop
  endfacet
  facet normal 0 0 -1
    outer loop
      vertex 5.70634 1.8541 -3.5
      vertex 1.55 2.08129 -3.5
      vertex 5.57866 2.20875 -3.5
    endloop
  endfacet
  facet normal 0 0 -1
    outer loop
      vertex 1.55 -2.08129 -3.5
      vertex 5.25784 -2.89052 -3.5
      vertex 5.06597 -3.21496 -3.5
    endloop
  endfacet
  facet normal -0 0 -1
    outer loop
      vertex 5.57866 2.20875 -3.5
      vertex 1.55 2.08129 -3.5
      vertex 5.42896 2.55468 -3.5
    endloop
  endfacet
  facet normal 0 0 -1
    outer loop
      vertex 1.55 -2.08129 -3.5
      vertex 5.06597 -3.21496 -3.5
      vertex 4.8541 -3.52671 -3.5
    endloop
  endfacet
  facet normal -0 0 -1
    outer loop
      vertex 5.42896 2.55468 -3.5
      vertex 1.55 2.08129 -3.5
      vertex 5.25784 2.89052 -3.5
    endloop
  endfacet
  facet normal 0 0 -1
    outer loop
      vertex 1.55 -2.08129 -3.5
      vertex 4.8541 -3.52671 -3.5
      vertex 4.62308 -3.82454 -3.5
    endloop
  endfacet
  facet normal -0 0 -1
    outer loop
      vertex 5.25784 2.89052 -3.5
      vertex 1.55 2.08129 -3.5
      vertex 5.06597 3.21496 -3.5
    endloop
  endfacet
  facet normal 0 0 -1
    outer loop
      vertex 1.55 -2.08129 -3.5
      vertex 4.62308 -3.82454 -3.5
      vertex 4.37381 -4.10728 -3.5
    endloop
  endfacet
  facet normal -0 0 -1
    outer loop
      vertex 5.06597 3.21496 -3.5
      vertex 1.55 2.08129 -3.5
      vertex 4.8541 3.52671 -3.5
    endloop
  endfacet
  facet normal 0 0 -1
    outer loop
      vertex 1.55 -2.08129 -3.5
      vertex 4.37381 -4.10728 -3.5
      vertex 4.10728 -4.37381 -3.5
    endloop
  endfacet
  facet normal -0 0 -1
    outer loop
      vertex 4.8541 3.52671 -3.5
      vertex 1.55 2.08129 -3.5
      vertex 4.62308 3.82454 -3.5
    endloop
  endfacet
  facet normal 0 0 -1
    outer loop
      vertex 1.55 -2.08129 -3.5
      vertex 4.10728 -4.37381 -3.5
      vertex 3.82454 -4.62308 -3.5
    endloop
  endfacet
  facet normal -0 0 -1
    outer loop
      vertex 4.62308 3.82454 -3.5
      vertex 1.55 2.08129 -3.5
      vertex 4.37381 4.10728 -3.5
    endloop
  endfacet
  facet normal 0 0 -1
    outer loop
      vertex 1.55 -2.08129 -3.5
      vertex 3.82454 -4.62308 -3.5
      vertex 3.52671 -4.8541 -3.5
    endloop
  endfacet
  facet normal -0 0 -1
    outer loop
      vertex 4.37381 4.10728 -3.5
      vertex 1.55 2.08129 -3.5
      vertex 4.10728 4.37381 -3.5
    endloop
  endfacet
  facet normal 0 0 -1
    outer loop
      vertex 1.39315 -2.19525 -3.5
      vertex 3.52671 -4.8541 -3.5
      vertex 3.21496 -5.06597 -3.5
    endloop
  endfacet
  facet normal -0 0 -1
    outer loop
      vertex 4.10728 4.37381 -3.5
      vertex 1.55 2.08129 -3.5
      vertex 3.82454 4.62308 -3.5
    endloop
  endfacet
  facet normal 0 0 -1
    outer loop
      vertex 1.39315 -2.19525 -3.5
      vertex 3.21496 -5.06597 -3.5
      vertex 2.89052 -5.25784 -3.5
    endloop
  endfacet
  facet normal -0 0 -1
    outer loop
      vertex 3.82454 4.62308 -3.5
      vertex 1.55 2.08129 -3.5
      vertex 3.52671 4.8541 -3.5
    endloop
  endfacet
  facet normal 0 0 -1
    outer loop
      vertex 1.10703 -2.35255 -3.5
      vertex 2.89052 -5.25784 -3.5
      vertex 2.55468 -5.42896 -3.5
    endloop
  endfacet
  facet normal 0 0 -1
    outer loop
      vertex 1.39315 2.19525 -3.5
      vertex 3.52671 4.8541 -3.5
      vertex 1.55 2.08129 -3.5
    endloop
  endfacet
  facet normal 0 0 -1
    outer loop
      vertex 1.10703 -2.35255 -3.5
      vertex 2.55468 -5.42896 -3.5
      vertex 2.20875 -5.57866 -3.5
    endloop
  endfacet
  facet normal -0 0 -1
    outer loop
      vertex 3.52671 4.8541 -3.5
      vertex 1.39315 2.19525 -3.5
      vertex 3.21496 5.06597 -3.5
    endloop
  endfacet
  facet normal 0 0 -1
    outer loop
      vertex 0.803444 -2.47275 -3.5
      vertex 2.20875 -5.57866 -3.5
      vertex 1.8541 -5.70634 -3.5
    endloop
  endfacet
  facet normal -0 0 -1
    outer loop
      vertex 3.21496 5.06597 -3.5
      vertex 1.39315 2.19525 -3.5
      vertex 2.89052 5.25784 -3.5
    endloop
  endfacet
  facet normal 0 0 -1
    outer loop
      vertex 1.10703 2.35255 -3.5
      vertex 2.89052 5.25784 -3.5
      vertex 1.39315 2.19525 -3.5
    endloop
  endfacet
  facet normal 0 0 -1
    outer loop
      vertex 0.803444 -2.47275 -3.5
      vertex 1.8541 -5.70634 -3.5
      vertex 1.49214 -5.8115 -3.5
    endloop
  endfacet
  facet normal 0 0 -1
    outer loop
      vertex 3.52671 -4.8541 -3.5
      vertex 1.39315 -2.19525 -3.5
      vertex 1.55 -2.08129 -3.5
    endloop
  endfacet
  facet normal 0 0 -1
    outer loop
      vertex 0.487191 -2.55395 -3.5
      vertex 1.49214 -5.8115 -3.5
      vertex 1.12429 -5.89372 -3.5
    endloop
  endfacet
  facet normal 0 0 -1
    outer loop
      vertex 2.89052 -5.25784 -3.5
      vertex 1.10703 -2.35255 -3.5
      vertex 1.39315 -2.19525 -3.5
    endloop
  endfacet
  facet normal 0 0 -1
    outer loop
      vertex 2.20875 -5.57866 -3.5
      vertex 0.803444 -2.47275 -3.5
      vertex 1.10703 -2.35255 -3.5
    endloop
  endfacet
  facet normal 0 0 -1
    outer loop
      vertex 0.487191 -2.55395 -3.5
      vertex 1.12429 -5.89372 -3.5
      vertex 0.751999 -5.95269 -3.5
    endloop
  endfacet
  facet normal 0 0 -1
    outer loop
      vertex 1.49214 -5.8115 -3.5
      vertex 0.487191 -2.55395 -3.5
      vertex 0.803444 -2.47275 -3.5
    endloop
  endfacet
  facet normal 0 0 -1
    outer loop
      vertex 0.163255 -2.59487 -3.5
      vertex 0.751999 -5.95269 -3.5
      vertex 0.376742 -5.98816 -3.5
    endloop
  endfacet
  facet normal 0 0 -1
    outer loop
      vertex 0.751999 -5.95269 -3.5
      vertex 0.163255 -2.59487 -3.5
      vertex 0.487191 -2.55395 -3.5
    endloop
  endfacet
  facet normal 0 0 -1
    outer loop
      vertex 0 -6 -3.5
      vertex 0.163255 -2.59487 -3.5
      vertex 0.376742 -5.98816 -3.5
    endloop
  endfacet
  facet normal 0 0 -1
    outer loop
      vertex 0 -6 -3.5
      vertex -0.163255 -2.59487 -3.5
      vertex 0.163255 -2.59487 -3.5
    endloop
  endfacet
  facet normal 0 0 -1
    outer loop
      vertex -0.376742 -5.98816 -3.5
      vertex -0.163255 -2.59487 -3.5
      vertex 0 -6 -3.5
    endloop
  endfacet
  facet normal 0 0 -1
    outer loop
      vertex -0.751999 -5.95269 -3.5
      vertex -0.163255 -2.59487 -3.5
      vertex -0.376742 -5.98816 -3.5
    endloop
  endfacet
  facet normal -0 0 -1
    outer loop
      vertex -0.163255 -2.59487 -3.5
      vertex -0.751999 -5.95269 -3.5
      vertex -0.487191 -2.55395 -3.5
    endloop
  endfacet
  facet normal 0 0 -1
    outer loop
      vertex -1.12429 -5.89372 -3.5
      vertex -0.487191 -2.55395 -3.5
      vertex -0.751999 -5.95269 -3.5
    endloop
  endfacet
  facet normal 0 0 -1
    outer loop
      vertex -1.49214 -5.8115 -3.5
      vertex -0.487191 -2.55395 -3.5
      vertex -1.12429 -5.89372 -3.5
    endloop
  endfacet
  facet normal -0 0 -1
    outer loop
      vertex -0.487191 -2.55395 -3.5
      vertex -1.49214 -5.8115 -3.5
      vertex -0.803444 -2.47275 -3.5
    endloop
  endfacet
  facet normal 0 0 -1
    outer loop
      vertex -1.8541 -5.70634 -3.5
      vertex -0.803444 -2.47275 -3.5
      vertex -1.49214 -5.8115 -3.5
    endloop
  endfacet
  facet normal 0 0 -1
    outer loop
      vertex -2.20875 -5.57866 -3.5
      vertex -0.803444 -2.47275 -3.5
      vertex -1.8541 -5.70634 -3.5
    endloop
  endfacet
  facet normal -0 0 -1
    outer loop
      vertex -0.803444 -2.47275 -3.5
      vertex -2.20875 -5.57866 -3.5
      vertex -1.10703 -2.35255 -3.5
    endloop
  endfacet
  facet normal 0 0 -1
    outer loop
      vertex -2.89052 -5.25784 -3.5
      vertex -1.10703 -2.35255 -3.5
      vertex -2.55468 -5.42896 -3.5
    endloop
  endfacet
  facet normal 0 0 -1
    outer loop
      vertex -2.55468 -5.42896 -3.5
      vertex -1.10703 -2.35255 -3.5
      vertex -2.20875 -5.57866 -3.5
    endloop
  endfacet
  facet normal -0 0 -1
    outer loop
      vertex 2.89052 5.25784 -3.5
      vertex 1.10703 2.35255 -3.5
      vertex 2.55468 5.42896 -3.5
    endloop
  endfacet
  facet normal -0 0 -1
    outer loop
      vertex 2.55468 5.42896 -3.5
      vertex 1.10703 2.35255 -3.5
      vertex 2.20875 5.57866 -3.5
    endloop
  endfacet
  facet normal 0 0 -1
    outer loop
      vertex 0.803444 2.47275 -3.5
      vertex 2.20875 5.57866 -3.5
      vertex 1.10703 2.35255 -3.5
    endloop
  endfacet
  facet normal -0 0 -1
    outer loop
      vertex 2.20875 5.57866 -3.5
      vertex 0.803444 2.47275 -3.5
      vertex 1.8541 5.70634 -3.5
    endloop
  endfacet
  facet normal -0 0 -1
    outer loop
      vertex 1.8541 5.70634 -3.5
      vertex 0.803444 2.47275 -3.5
      vertex 1.49214 5.8115 -3.5
    endloop
  endfacet
  facet normal 0 0 -1
    outer loop
      vertex 0.487191 2.55395 -3.5
      vertex 1.49214 5.8115 -3.5
      vertex 0.803444 2.47275 -3.5
    endloop
  endfacet
  facet normal -0 0 -1
    outer loop
      vertex 1.49214 5.8115 -3.5
      vertex 0.487191 2.55395 -3.5
      vertex 1.12429 5.89372 -3.5
    endloop
  endfacet
  facet normal -0 0 -1
    outer loop
      vertex 1.12429 5.89372 -3.5
      vertex 0.487191 2.55395 -3.5
      vertex 0.751999 5.95269 -3.5
    endloop
  endfacet
  facet normal 0 0 -1
    outer loop
      vertex 0.163255 2.59487 -3.5
      vertex 0.751999 5.95269 -3.5
      vertex 0.487191 2.55395 -3.5
    endloop
  endfacet
  facet normal -0 0 -1
    outer loop
      vertex 0.751999 5.95269 -3.5
      vertex 0.163255 2.59487 -3.5
      vertex 0.376742 5.98816 -3.5
    endloop
  endfacet
  facet normal 0 0 -1
    outer loop
      vertex 0.163255 2.59487 -3.5
      vertex 0 6 -3.5
      vertex 0.376742 5.98816 -3.5
    endloop
  endfacet
  facet normal 0 0 -1
    outer loop
      vertex -0.163255 2.59487 -3.5
      vertex 0 6 -3.5
      vertex 0.163255 2.59487 -3.5
    endloop
  endfacet
  facet normal 0 0 -1
    outer loop
      vertex -0.163255 2.59487 -3.5
      vertex -0.376742 5.98816 -3.5
      vertex 0 6 -3.5
    endloop
  endfacet
  facet normal 0 0 -1
    outer loop
      vertex -0.751999 5.95269 -3.5
      vertex -0.163255 2.59487 -3.5
      vertex -0.487191 2.55395 -3.5
    endloop
  endfacet
  facet normal 0 0 -1
    outer loop
      vertex -0.163255 2.59487 -3.5
      vertex -0.751999 5.95269 -3.5
      vertex -0.376742 5.98816 -3.5
    endloop
  endfacet
  facet normal 0 0 -1
    outer loop
      vertex -1.49214 5.8115 -3.5
      vertex -0.487191 2.55395 -3.5
      vertex -0.803444 2.47275 -3.5
    endloop
  endfacet
  facet normal 0 0 -1
    outer loop
      vertex -2.20875 5.57866 -3.5
      vertex -0.803444 2.47275 -3.5
      vertex -1.10703 2.35255 -3.5
    endloop
  endfacet
  facet normal 0 0 -1
    outer loop
      vertex -0.487191 2.55395 -3.5
      vertex -1.12429 5.89372 -3.5
      vertex -0.751999 5.95269 -3.5
    endloop
  endfacet
  facet normal 0 0 -1
    outer loop
      vertex -2.89052 5.25784 -3.5
      vertex -1.10703 2.35255 -3.5
      vertex -1.39315 2.19525 -3.5
    endloop
  endfacet
  facet normal 0 0 -1
    outer loop
      vertex -0.487191 2.55395 -3.5
      vertex -1.49214 5.8115 -3.5
      vertex -1.12429 5.89372 -3.5
    endloop
  endfacet
  facet normal 0 0 -1
    outer loop
      vertex -3.52671 4.8541 -3.5
      vertex -1.39315 2.19525 -3.5
      vertex -1.55 2.08129 -3.5
    endloop
  endfacet
  facet normal -0 0 -1
    outer loop
      vertex -1.10703 -2.35255 -3.5
      vertex -2.89052 -5.25784 -3.5
      vertex -1.39315 -2.19525 -3.5
    endloop
  endfacet
  facet normal 0 0 -1
    outer loop
      vertex -0.803444 2.47275 -3.5
      vertex -1.8541 5.70634 -3.5
      vertex -1.49214 5.8115 -3.5
    endloop
  endfacet
  facet normal 0 0 -1
    outer loop
      vertex -3.21496 -5.06597 -3.5
      vertex -1.39315 -2.19525 -3.5
      vertex -2.89052 -5.25784 -3.5
    endloop
  endfacet
  facet normal 0 0 -1
    outer loop
      vertex -0.803444 2.47275 -3.5
      vertex -2.20875 5.57866 -3.5
      vertex -1.8541 5.70634 -3.5
    endloop
  endfacet
  facet normal 0 0 -1
    outer loop
      vertex -3.52671 -4.8541 -3.5
      vertex -1.39315 -2.19525 -3.5
      vertex -3.21496 -5.06597 -3.5
    endloop
  endfacet
  facet normal 0 0 -1
    outer loop
      vertex -1.10703 2.35255 -3.5
      vertex -2.55468 5.42896 -3.5
      vertex -2.20875 5.57866 -3.5
    endloop
  endfacet
  facet normal -0 0 -1
    outer loop
      vertex -1.39315 -2.19525 -3.5
      vertex -3.52671 -4.8541 -3.5
      vertex -1.55 -2.08129 -3.5
    endloop
  endfacet
  facet normal 0 0 -1
    outer loop
      vertex -1.10703 2.35255 -3.5
      vertex -2.89052 5.25784 -3.5
      vertex -2.55468 5.42896 -3.5
    endloop
  endfacet
  facet normal 0 0 -1
    outer loop
      vertex -3.82454 -4.62308 -3.5
      vertex -1.55 -2.08129 -3.5
      vertex -3.52671 -4.8541 -3.5
    endloop
  endfacet
  facet normal 0 0 -1
    outer loop
      vertex -1.39315 2.19525 -3.5
      vertex -3.21496 5.06597 -3.5
      vertex -2.89052 5.25784 -3.5
    endloop
  endfacet
  facet normal 0 0 -1
    outer loop
      vertex -4.10728 -4.37381 -3.5
      vertex -1.55 -2.08129 -3.5
      vertex -3.82454 -4.62308 -3.5
    endloop
  endfacet
  facet normal 0 0 -1
    outer loop
      vertex -1.39315 2.19525 -3.5
      vertex -3.52671 4.8541 -3.5
      vertex -3.21496 5.06597 -3.5
    endloop
  endfacet
  facet normal 0 0 -1
    outer loop
      vertex -4.37381 -4.10728 -3.5
      vertex -1.55 -2.08129 -3.5
      vertex -4.10728 -4.37381 -3.5
    endloop
  endfacet
  facet normal 0 0 -1
    outer loop
      vertex -1.55 2.08129 -3.5
      vertex -3.82454 4.62308 -3.5
      vertex -3.52671 4.8541 -3.5
    endloop
  endfacet
  facet normal 0 0 -1
    outer loop
      vertex -4.62308 -3.82454 -3.5
      vertex -1.55 -2.08129 -3.5
      vertex -4.37381 -4.10728 -3.5
    endloop
  endfacet
  facet normal 0 0 -1
    outer loop
      vertex -1.55 2.08129 -3.5
      vertex -4.10728 4.37381 -3.5
      vertex -3.82454 4.62308 -3.5
    endloop
  endfacet
  facet normal 0 0 -1
    outer loop
      vertex -4.8541 -3.52671 -3.5
      vertex -1.55 -2.08129 -3.5
      vertex -4.62308 -3.82454 -3.5
    endloop
  endfacet
  facet normal 0 0 -1
    outer loop
      vertex -1.55 2.08129 -3.5
      vertex -4.37381 4.10728 -3.5
      vertex -4.10728 4.37381 -3.5
    endloop
  endfacet
  facet normal 0 0 -1
    outer loop
      vertex -5.06597 -3.21496 -3.5
      vertex -1.55 -2.08129 -3.5
      vertex -4.8541 -3.52671 -3.5
    endloop
  endfacet
  facet normal 0 0 -1
    outer loop
      vertex -1.55 2.08129 -3.5
      vertex -4.62308 3.82454 -3.5
      vertex -4.37381 4.10728 -3.5
    endloop
  endfacet
  facet normal 0 0 -1
    outer loop
      vertex -5.25784 -2.89052 -3.5
      vertex -1.55 -2.08129 -3.5
      vertex -5.06597 -3.21496 -3.5
    endloop
  endfacet
  facet normal 0 0 -1
    outer loop
      vertex -1.55 2.08129 -3.5
      vertex -4.8541 3.52671 -3.5
      vertex -4.62308 3.82454 -3.5
    endloop
  endfacet
  facet normal 0 0 -1
    outer loop
      vertex -5.42896 -2.55468 -3.5
      vertex -1.55 -2.08129 -3.5
      vertex -5.25784 -2.89052 -3.5
    endloop
  endfacet
  facet normal 0 0 -1
    outer loop
      vertex -1.55 2.08129 -3.5
      vertex -5.06597 3.21496 -3.5
      vertex -4.8541 3.52671 -3.5
    endloop
  endfacet
  facet normal 0 0 -1
    outer loop
      vertex -5.57866 -2.20875 -3.5
      vertex -1.55 -2.08129 -3.5
      vertex -5.42896 -2.55468 -3.5
    endloop
  endfacet
  facet normal 0 0 -1
    outer loop
      vertex -1.55 2.08129 -3.5
      vertex -5.25784 2.89052 -3.5
      vertex -5.06597 3.21496 -3.5
    endloop
  endfacet
  facet normal 0 0 -1
    outer loop
      vertex -5.70634 -1.8541 -3.5
      vertex -1.55 -2.08129 -3.5
      vertex -5.57866 -2.20875 -3.5
    endloop
  endfacet
  facet normal 0 0 -1
    outer loop
      vertex -1.55 2.08129 -3.5
      vertex -5.42896 2.55468 -3.5
      vertex -5.25784 2.89052 -3.5
    endloop
  endfacet
  facet normal 0 0 -1
    outer loop
      vertex -5.8115 -1.49214 -3.5
      vertex -1.55 -2.08129 -3.5
      vertex -5.70634 -1.8541 -3.5
    endloop
  endfacet
  facet normal 0 0 -1
    outer loop
      vertex -1.55 2.08129 -3.5
      vertex -5.57866 2.20875 -3.5
      vertex -5.42896 2.55468 -3.5
    endloop
  endfacet
  facet normal 0 0 -1
    outer loop
      vertex -5.89372 -1.12429 -3.5
      vertex -1.55 -2.08129 -3.5
      vertex -5.8115 -1.49214 -3.5
    endloop
  endfacet
  facet normal -0 0 -1
    outer loop
      vertex -1.55 2.08129 -3.5
      vertex -5.70634 1.8541 -3.5
      vertex -5.57866 2.20875 -3.5
    endloop
  endfacet
  facet normal 0 0 -1
    outer loop
      vertex -5.95269 -0.751999 -3.5
      vertex -1.55 -2.08129 -3.5
      vertex -5.89372 -1.12429 -3.5
    endloop
  endfacet
  facet normal 0 0 -1
    outer loop
      vertex -1.55 2.08129 -3.5
      vertex -5.8115 1.49214 -3.5
      vertex -5.70634 1.8541 -3.5
    endloop
  endfacet
  facet normal 0 0 -1
    outer loop
      vertex -5.98816 -0.376742 -3.5
      vertex -1.55 -2.08129 -3.5
      vertex -5.95269 -0.751999 -3.5
    endloop
  endfacet
  facet normal 0 0 -1
    outer loop
      vertex -1.55 2.08129 -3.5
      vertex -5.89372 1.12429 -3.5
      vertex -5.8115 1.49214 -3.5
    endloop
  endfacet
  facet normal 0 0 -1
    outer loop
      vertex -6 0 -3.5
      vertex -1.55 -2.08129 -3.5
      vertex -5.98816 -0.376742 -3.5
    endloop
  endfacet
  facet normal 0 0 -1
    outer loop
      vertex -1.55 2.08129 -3.5
      vertex -5.95269 0.751999 -3.5
      vertex -5.89372 1.12429 -3.5
    endloop
  endfacet
  facet normal 0 0 -1
    outer loop
      vertex -1.55 -2.08129 -3.5
      vertex -6 0 -3.5
      vertex -1.55 2.08129 -3.5
    endloop
  endfacet
  facet normal 0 0 -1
    outer loop
      vertex -1.55 2.08129 -3.5
      vertex -5.98816 0.376742 -3.5
      vertex -5.95269 0.751999 -3.5
    endloop
  endfacet
  facet normal 0 0 -1
    outer loop
      vertex -1.55 2.08129 -3.5
      vertex -6 0 -3.5
      vertex -5.98816 0.376742 -3.5
    endloop
  endfacet
  facet normal 0.940882 0.338734 0
    outer loop
      vertex 5.70634 1.8541 3.5
      vertex 5.57866 2.20875 -3.5
      vertex 5.57866 2.20875 3.5
    endloop
  endfacet
  facet normal 0.940882 0.338734 0
    outer loop
      vertex 5.57866 2.20875 -3.5
      vertex 5.70634 1.8541 3.5
      vertex 5.70634 1.8541 -3.5
    endloop
  endfacet
  facet normal 0.790156 0.612906 0
    outer loop
      vertex 4.8541 3.52671 3.5
      vertex 4.62308 3.82454 -3.5
      vertex 4.62308 3.82454 3.5
    endloop
  endfacet
  facet normal 0.790156 0.612906 0
    outer loop
      vertex 4.62308 3.82454 -3.5
      vertex 4.8541 3.52671 3.5
      vertex 4.8541 3.52671 -3.5
    endloop
  endfacet
  facet normal 0.75011 0.661314 0
    outer loop
      vertex 4.62308 3.82454 3.5
      vertex 4.37381 4.10728 -3.5
      vertex 4.37381 4.10728 3.5
    endloop
  endfacet
  facet normal 0.75011 0.661314 0
    outer loop
      vertex 4.37381 4.10728 -3.5
      vertex 4.62308 3.82454 3.5
      vertex 4.62308 3.82454 -3.5
    endloop
  endfacet
  facet normal 0.827075 0.562092 0
    outer loop
      vertex 5.06597 3.21496 3.5
      vertex 4.8541 3.52671 -3.5
      vertex 4.8541 3.52671 3.5
    endloop
  endfacet
  facet normal 0.827075 0.562092 0
    outer loop
      vertex 4.8541 3.52671 -3.5
      vertex 5.06597 3.21496 3.5
      vertex 5.06597 3.21496 -3.5
    endloop
  endfacet
  facet normal 0.860746 0.509035 0
    outer loop
      vertex 5.25784 2.89052 3.5
      vertex 5.06597 3.21496 -3.5
      vertex 5.06597 3.21496 3.5
    endloop
  endfacet
  facet normal 0.860746 0.509035 0
    outer loop
      vertex 5.06597 3.21496 -3.5
      vertex 5.25784 2.89052 3.5
      vertex 5.25784 2.89052 -3.5
    endloop
  endfacet
  facet normal 0.218133 0.975919 -0
    outer loop
      vertex 1.49214 5.8115 -3.5
      vertex 1.12429 5.89372 3.5
      vertex 1.49214 5.8115 3.5
    endloop
  endfacet
  facet normal 0.218133 0.975919 0
    outer loop
      vertex 1.12429 5.89372 3.5
      vertex 1.49214 5.8115 -3.5
      vertex 1.12429 5.89372 -3.5
    endloop
  endfacet
  facet normal 0.156447 0.987686 -0
    outer loop
      vertex 1.12429 5.89372 -3.5
      vertex 0.751999 5.95269 3.5
      vertex 1.12429 5.89372 3.5
    endloop
  endfacet
  facet normal 0.156447 0.987686 0
    outer loop
      vertex 0.751999 5.95269 3.5
      vertex 1.12429 5.89372 -3.5
      vertex 0.751999 5.95269 -3.5
    endloop
  endfacet
  facet normal 0.397154 0.917752 -0
    outer loop
      vertex 2.55468 5.42896 -3.5
      vertex 2.20875 5.57866 3.5
      vertex 2.55468 5.42896 3.5
    endloop
  endfacet
  facet normal 0.397154 0.917752 0
    outer loop
      vertex 2.20875 5.57866 3.5
      vertex 2.55468 5.42896 -3.5
      vertex 2.20875 5.57866 -3.5
    endloop
  endfacet
  facet normal 0.453993 0.891005 -0
    outer loop
      vertex 2.89052 5.25784 -3.5
      vertex 2.55468 5.42896 3.5
      vertex 2.89052 5.25784 3.5
    endloop
  endfacet
  facet normal 0.453993 0.891005 0
    outer loop
      vertex 2.55468 5.42896 3.5
      vertex 2.89052 5.25784 -3.5
      vertex 2.55468 5.42896 -3.5
    endloop
  endfacet
  facet normal 0.661314 0.75011 -0
    outer loop
      vertex 4.10728 4.37381 -3.5
      vertex 3.82454 4.62308 3.5
      vertex 4.10728 4.37381 3.5
    endloop
  endfacet
  facet normal 0.661314 0.75011 0
    outer loop
      vertex 3.82454 4.62308 3.5
      vertex 4.10728 4.37381 -3.5
      vertex 3.82454 4.62308 -3.5
    endloop
  endfacet
  facet normal 0.612906 0.790156 -0
    outer loop
      vertex 3.82454 4.62308 -3.5
      vertex 3.52671 4.8541 3.5
      vertex 3.82454 4.62308 3.5
    endloop
  endfacet
  facet normal 0.612906 0.790156 0
    outer loop
      vertex 3.52671 4.8541 3.5
      vertex 3.82454 4.62308 -3.5
      vertex 3.52671 4.8541 -3.5
    endloop
  endfacet
  facet normal -0.917752 0.397154 0
    outer loop
      vertex -5.57866 2.20875 -3.5
      vertex -5.42896 2.55468 3.5
      vertex -5.42896 2.55468 -3.5
    endloop
  endfacet
  facet normal -0.917752 0.397154 0
    outer loop
      vertex -5.42896 2.55468 3.5
      vertex -5.57866 2.20875 -3.5
      vertex -5.57866 2.20875 3.5
    endloop
  endfacet
  facet normal -0.975919 0.218133 0
    outer loop
      vertex -5.89372 1.12429 -3.5
      vertex -5.8115 1.49214 3.5
      vertex -5.8115 1.49214 -3.5
    endloop
  endfacet
  facet normal -0.975919 0.218133 0
    outer loop
      vertex -5.8115 1.49214 3.5
      vertex -5.89372 1.12429 -3.5
      vertex -5.89372 1.12429 3.5
    endloop
  endfacet
  facet normal -0.987686 0.156447 0
    outer loop
      vertex -5.95269 0.751999 -3.5
      vertex -5.89372 1.12429 3.5
      vertex -5.89372 1.12429 -3.5
    endloop
  endfacet
  facet normal -0.987686 0.156447 0
    outer loop
      vertex -5.89372 1.12429 3.5
      vertex -5.95269 0.751999 -3.5
      vertex -5.95269 0.751999 3.5
    endloop
  endfacet
  facet normal 0 0 1
    outer loop
      vertex 1.55 2.08129 3.5
      vertex 6 0 3.5
      vertex 5.98816 0.376742 3.5
    endloop
  endfacet
  facet normal 0 0 1
    outer loop
      vertex 1.55 2.08129 3.5
      vertex 5.98816 0.376742 3.5
      vertex 5.95269 0.751999 3.5
    endloop
  endfacet
  facet normal 0 0 1
    outer loop
      vertex 1.55 -2.08129 3.5
      vertex 6 0 3.5
      vertex 1.55 2.08129 3.5
    endloop
  endfacet
  facet normal 0 0 1
    outer loop
      vertex 1.55 2.08129 3.5
      vertex 5.95269 0.751999 3.5
      vertex 5.89372 1.12429 3.5
    endloop
  endfacet
  facet normal 0 0 1
    outer loop
      vertex 6 0 3.5
      vertex 1.55 -2.08129 3.5
      vertex 5.98816 -0.376742 3.5
    endloop
  endfacet
  facet normal 0 0 1
    outer loop
      vertex 1.55 2.08129 3.5
      vertex 5.89372 1.12429 3.5
      vertex 5.8115 1.49214 3.5
    endloop
  endfacet
  facet normal 0 0 1
    outer loop
      vertex 5.98816 -0.376742 3.5
      vertex 1.55 -2.08129 3.5
      vertex 5.95269 -0.751999 3.5
    endloop
  endfacet
  facet normal 0 0 1
    outer loop
      vertex 1.55 2.08129 3.5
      vertex 5.8115 1.49214 3.5
      vertex 5.70634 1.8541 3.5
    endloop
  endfacet
  facet normal 0 0 1
    outer loop
      vertex 5.95269 -0.751999 3.5
      vertex 1.55 -2.08129 3.5
      vertex 5.89372 -1.12429 3.5
    endloop
  endfacet
  facet normal -0 0 1
    outer loop
      vertex 1.55 2.08129 3.5
      vertex 5.70634 1.8541 3.5
      vertex 5.57866 2.20875 3.5
    endloop
  endfacet
  facet normal 0 0 1
    outer loop
      vertex 5.89372 -1.12429 3.5
      vertex 1.55 -2.08129 3.5
      vertex 5.8115 -1.49214 3.5
    endloop
  endfacet
  facet normal 0 0 1
    outer loop
      vertex 1.55 2.08129 3.5
      vertex 5.57866 2.20875 3.5
      vertex 5.42896 2.55468 3.5
    endloop
  endfacet
  facet normal 0 0 1
    outer loop
      vertex 5.8115 -1.49214 3.5
      vertex 1.55 -2.08129 3.5
      vertex 5.70634 -1.8541 3.5
    endloop
  endfacet
  facet normal 0 0 1
    outer loop
      vertex 1.55 2.08129 3.5
      vertex 5.42896 2.55468 3.5
      vertex 5.25784 2.89052 3.5
    endloop
  endfacet
  facet normal 0 0 1
    outer loop
      vertex 5.70634 -1.8541 3.5
      vertex 1.55 -2.08129 3.5
      vertex 5.57866 -2.20875 3.5
    endloop
  endfacet
  facet normal 0 0 1
    outer loop
      vertex 1.55 2.08129 3.5
      vertex 5.25784 2.89052 3.5
      vertex 5.06597 3.21496 3.5
    endloop
  endfacet
  facet normal 0 0 1
    outer loop
      vertex 5.57866 -2.20875 3.5
      vertex 1.55 -2.08129 3.5
      vertex 5.42896 -2.55468 3.5
    endloop
  endfacet
  facet normal 0 0 1
    outer loop
      vertex 1.55 2.08129 3.5
      vertex 5.06597 3.21496 3.5
      vertex 4.8541 3.52671 3.5
    endloop
  endfacet
  facet normal 0 0 1
    outer loop
      vertex 5.42896 -2.55468 3.5
      vertex 1.55 -2.08129 3.5
      vertex 5.25784 -2.89052 3.5
    endloop
  endfacet
  facet normal 0 0 1
    outer loop
      vertex 1.55 2.08129 3.5
      vertex 4.8541 3.52671 3.5
      vertex 4.62308 3.82454 3.5
    endloop
  endfacet
  facet normal 0 0 1
    outer loop
      vertex 5.25784 -2.89052 3.5
      vertex 1.55 -2.08129 3.5
      vertex 5.06597 -3.21496 3.5
    endloop
  endfacet
  facet normal 0 0 1
    outer loop
      vertex 1.55 2.08129 3.5
      vertex 4.62308 3.82454 3.5
      vertex 4.37381 4.10728 3.5
    endloop
  endfacet
  facet normal 0 0 1
    outer loop
      vertex 5.06597 -3.21496 3.5
      vertex 1.55 -2.08129 3.5
      vertex 4.8541 -3.52671 3.5
    endloop
  endfacet
  facet normal 0 0 1
    outer loop
      vertex 1.55 2.08129 3.5
      vertex 4.37381 4.10728 3.5
      vertex 4.10728 4.37381 3.5
    endloop
  endfacet
  facet normal 0 0 1
    outer loop
      vertex 4.8541 -3.52671 3.5
      vertex 1.55 -2.08129 3.5
      vertex 4.62308 -3.82454 3.5
    endloop
  endfacet
  facet normal 0 0 1
    outer loop
      vertex 1.55 2.08129 3.5
      vertex 4.10728 4.37381 3.5
      vertex 3.82454 4.62308 3.5
    endloop
  endfacet
  facet normal 0 0 1
    outer loop
      vertex 4.62308 -3.82454 3.5
      vertex 1.55 -2.08129 3.5
      vertex 4.37381 -4.10728 3.5
    endloop
  endfacet
  facet normal 0 0 1
    outer loop
      vertex 1.55 2.08129 3.5
      vertex 3.82454 4.62308 3.5
      vertex 3.52671 4.8541 3.5
    endloop
  endfacet
  facet normal 0 0 1
    outer loop
      vertex 4.37381 -4.10728 3.5
      vertex 1.55 -2.08129 3.5
      vertex 4.10728 -4.37381 3.5
    endloop
  endfacet
  facet normal 0 0 1
    outer loop
      vertex 1.39315 2.19525 3.5
      vertex 3.52671 4.8541 3.5
      vertex 3.21496 5.06597 3.5
    endloop
  endfacet
  facet normal 0 0 1
    outer loop
      vertex 4.10728 -4.37381 3.5
      vertex 1.55 -2.08129 3.5
      vertex 3.82454 -4.62308 3.5
    endloop
  endfacet
  facet normal 0 0 1
    outer loop
      vertex 1.39315 2.19525 3.5
      vertex 3.21496 5.06597 3.5
      vertex 2.89052 5.25784 3.5
    endloop
  endfacet
  facet normal 0 0 1
    outer loop
      vertex 3.82454 -4.62308 3.5
      vertex 1.55 -2.08129 3.5
      vertex 3.52671 -4.8541 3.5
    endloop
  endfacet
  facet normal 0 0 1
    outer loop
      vertex 1.10703 2.35255 3.5
      vertex 2.89052 5.25784 3.5
      vertex 2.55468 5.42896 3.5
    endloop
  endfacet
  facet normal -0 0 1
    outer loop
      vertex 1.39315 -2.19525 3.5
      vertex 3.52671 -4.8541 3.5
      vertex 1.55 -2.08129 3.5
    endloop
  endfacet
  facet normal 0 0 1
    outer loop
      vertex 1.10703 2.35255 3.5
      vertex 2.55468 5.42896 3.5
      vertex 2.20875 5.57866 3.5
    endloop
  endfacet
  facet normal 0 0 1
    outer loop
      vertex 3.52671 -4.8541 3.5
      vertex 1.39315 -2.19525 3.5
      vertex 3.21496 -5.06597 3.5
    endloop
  endfacet
  facet normal 0 0 1
    outer loop
      vertex 0.803444 2.47275 3.5
      vertex 2.20875 5.57866 3.5
      vertex 1.8541 5.70634 3.5
    endloop
  endfacet
  facet normal 0 0 1
    outer loop
      vertex 3.21496 -5.06597 3.5
      vertex 1.39315 -2.19525 3.5
      vertex 2.89052 -5.25784 3.5
    endloop
  endfacet
  facet normal -0 0 1
    outer loop
      vertex 1.10703 -2.35255 3.5
      vertex 2.89052 -5.25784 3.5
      vertex 1.39315 -2.19525 3.5
    endloop
  endfacet
  facet normal 0 0 1
    outer loop
      vertex 0.803444 2.47275 3.5
      vertex 1.8541 5.70634 3.5
      vertex 1.49214 5.8115 3.5
    endloop
  endfacet
  facet normal 0 0 1
    outer loop
      vertex 3.52671 4.8541 3.5
      vertex 1.39315 2.19525 3.5
      vertex 1.55 2.08129 3.5
    endloop
  endfacet
  facet normal 0 0 1
    outer loop
      vertex 0.487191 2.55395 3.5
      vertex 1.49214 5.8115 3.5
      vertex 1.12429 5.89372 3.5
    endloop
  endfacet
  facet normal 0 0 1
    outer loop
      vertex 2.89052 5.25784 3.5
      vertex 1.10703 2.35255 3.5
      vertex 1.39315 2.19525 3.5
    endloop
  endfacet
  facet normal 0 0 1
    outer loop
      vertex 2.20875 5.57866 3.5
      vertex 0.803444 2.47275 3.5
      vertex 1.10703 2.35255 3.5
    endloop
  endfacet
  facet normal 0 0 1
    outer loop
      vertex 0.487191 2.55395 3.5
      vertex 1.12429 5.89372 3.5
      vertex 0.751999 5.95269 3.5
    endloop
  endfacet
  facet normal 0 0 1
    outer loop
      vertex 1.49214 5.8115 3.5
      vertex 0.487191 2.55395 3.5
      vertex 0.803444 2.47275 3.5
    endloop
  endfacet
  facet normal 0 0 1
    outer loop
      vertex 0.163255 2.59487 3.5
      vertex 0.751999 5.95269 3.5
      vertex 0.376742 5.98816 3.5
    endloop
  endfacet
  facet normal 0 0 1
    outer loop
      vertex 0.751999 5.95269 3.5
      vertex 0.163255 2.59487 3.5
      vertex 0.487191 2.55395 3.5
    endloop
  endfacet
  facet normal 0 0 1
    outer loop
      vertex 0 6 3.5
      vertex 0.163255 2.59487 3.5
      vertex 0.376742 5.98816 3.5
    endloop
  endfacet
  facet normal 0 0 1
    outer loop
      vertex 0 6 3.5
      vertex -0.163255 2.59487 3.5
      vertex 0.163255 2.59487 3.5
    endloop
  endfacet
  facet normal -0 0 1
    outer loop
      vertex -0.376742 5.98816 3.5
      vertex -0.163255 2.59487 3.5
      vertex 0 6 3.5
    endloop
  endfacet
  facet normal -0 0 1
    outer loop
      vertex -0.751999 5.95269 3.5
      vertex -0.163255 2.59487 3.5
      vertex -0.376742 5.98816 3.5
    endloop
  endfacet
  facet normal 0 0 1
    outer loop
      vertex -0.163255 2.59487 3.5
      vertex -0.751999 5.95269 3.5
      vertex -0.487191 2.55395 3.5
    endloop
  endfacet
  facet normal -0 0 1
    outer loop
      vertex -1.12429 5.89372 3.5
      vertex -0.487191 2.55395 3.5
      vertex -0.751999 5.95269 3.5
    endloop
  endfacet
  facet normal -0 0 1
    outer loop
      vertex -1.49214 5.8115 3.5
      vertex -0.487191 2.55395 3.5
      vertex -1.12429 5.89372 3.5
    endloop
  endfacet
  facet normal 0 0 1
    outer loop
      vertex -0.487191 2.55395 3.5
      vertex -1.49214 5.8115 3.5
      vertex -0.803444 2.47275 3.5
    endloop
  endfacet
  facet normal -0 0 1
    outer loop
      vertex -1.8541 5.70634 3.5
      vertex -0.803444 2.47275 3.5
      vertex -1.49214 5.8115 3.5
    endloop
  endfacet
  facet normal -0 0 1
    outer loop
      vertex -2.20875 5.57866 3.5
      vertex -0.803444 2.47275 3.5
      vertex -1.8541 5.70634 3.5
    endloop
  endfacet
  facet normal 0 0 1
    outer loop
      vertex -0.803444 2.47275 3.5
      vertex -2.20875 5.57866 3.5
      vertex -1.10703 2.35255 3.5
    endloop
  endfacet
  facet normal -0 0 1
    outer loop
      vertex -2.89052 5.25784 3.5
      vertex -1.10703 2.35255 3.5
      vertex -2.55468 5.42896 3.5
    endloop
  endfacet
  facet normal -0 0 1
    outer loop
      vertex -2.55468 5.42896 3.5
      vertex -1.10703 2.35255 3.5
      vertex -2.20875 5.57866 3.5
    endloop
  endfacet
  facet normal 0 0 1
    outer loop
      vertex 2.89052 -5.25784 3.5
      vertex 1.10703 -2.35255 3.5
      vertex 2.55468 -5.42896 3.5
    endloop
  endfacet
  facet normal 0 0 1
    outer loop
      vertex 2.55468 -5.42896 3.5
      vertex 1.10703 -2.35255 3.5
      vertex 2.20875 -5.57866 3.5
    endloop
  endfacet
  facet normal -0 0 1
    outer loop
      vertex 0.803444 -2.47275 3.5
      vertex 2.20875 -5.57866 3.5
      vertex 1.10703 -2.35255 3.5
    endloop
  endfacet
  facet normal 0 0 1
    outer loop
      vertex 2.20875 -5.57866 3.5
      vertex 0.803444 -2.47275 3.5
      vertex 1.8541 -5.70634 3.5
    endloop
  endfacet
  facet normal 0 0 1
    outer loop
      vertex 1.8541 -5.70634 3.5
      vertex 0.803444 -2.47275 3.5
      vertex 1.49214 -5.8115 3.5
    endloop
  endfacet
  facet normal -0 0 1
    outer loop
      vertex 0.487191 -2.55395 3.5
      vertex 1.49214 -5.8115 3.5
      vertex 0.803444 -2.47275 3.5
    endloop
  endfacet
  facet normal 0 0 1
    outer loop
      vertex 1.49214 -5.8115 3.5
      vertex 0.487191 -2.55395 3.5
      vertex 1.12429 -5.89372 3.5
    endloop
  endfacet
  facet normal 0 0 1
    outer loop
      vertex 1.12429 -5.89372 3.5
      vertex 0.487191 -2.55395 3.5
      vertex 0.751999 -5.95269 3.5
    endloop
  endfacet
  facet normal -0 0 1
    outer loop
      vertex 0.163255 -2.59487 3.5
      vertex 0.751999 -5.95269 3.5
      vertex 0.487191 -2.55395 3.5
    endloop
  endfacet
  facet normal 0 0 1
    outer loop
      vertex 0.751999 -5.95269 3.5
      vertex 0.163255 -2.59487 3.5
      vertex 0.376742 -5.98816 3.5
    endloop
  endfacet
  facet normal 0 0 1
    outer loop
      vertex 0.163255 -2.59487 3.5
      vertex 0 -6 3.5
      vertex 0.376742 -5.98816 3.5
    endloop
  endfacet
  facet normal -0 0 1
    outer loop
      vertex -0.163255 -2.59487 3.5
      vertex 0 -6 3.5
      vertex 0.163255 -2.59487 3.5
    endloop
  endfacet
  facet normal 0 0 1
    outer loop
      vertex -0.163255 -2.59487 3.5
      vertex -0.376742 -5.98816 3.5
      vertex 0 -6 3.5
    endloop
  endfacet
  facet normal 0 0 1
    outer loop
      vertex -0.751999 -5.95269 3.5
      vertex -0.163255 -2.59487 3.5
      vertex -0.487191 -2.55395 3.5
    endloop
  endfacet
  facet normal 0 0 1
    outer loop
      vertex -0.163255 -2.59487 3.5
      vertex -0.751999 -5.95269 3.5
      vertex -0.376742 -5.98816 3.5
    endloop
  endfacet
  facet normal 0 0 1
    outer loop
      vertex -1.49214 -5.8115 3.5
      vertex -0.487191 -2.55395 3.5
      vertex -0.803444 -2.47275 3.5
    endloop
  endfacet
  facet normal 0 0 1
    outer loop
      vertex -2.20875 -5.57866 3.5
      vertex -0.803444 -2.47275 3.5
      vertex -1.10703 -2.35255 3.5
    endloop
  endfacet
  facet normal 0 0 1
    outer loop
      vertex -0.487191 -2.55395 3.5
      vertex -1.12429 -5.89372 3.5
      vertex -0.751999 -5.95269 3.5
    endloop
  endfacet
  facet normal 0 0 1
    outer loop
      vertex -2.89052 -5.25784 3.5
      vertex -1.10703 -2.35255 3.5
      vertex -1.39315 -2.19525 3.5
    endloop
  endfacet
  facet normal 0 0 1
    outer loop
      vertex -0.487191 -2.55395 3.5
      vertex -1.49214 -5.8115 3.5
      vertex -1.12429 -5.89372 3.5
    endloop
  endfacet
  facet normal 0 0 1
    outer loop
      vertex -3.52671 -4.8541 3.5
      vertex -1.39315 -2.19525 3.5
      vertex -1.55 -2.08129 3.5
    endloop
  endfacet
  facet normal 0 0 1
    outer loop
      vertex -1.10703 2.35255 3.5
      vertex -2.89052 5.25784 3.5
      vertex -1.39315 2.19525 3.5
    endloop
  endfacet
  facet normal 0 0 1
    outer loop
      vertex -0.803444 -2.47275 3.5
      vertex -1.8541 -5.70634 3.5
      vertex -1.49214 -5.8115 3.5
    endloop
  endfacet
  facet normal -0 0 1
    outer loop
      vertex -3.21496 5.06597 3.5
      vertex -1.39315 2.19525 3.5
      vertex -2.89052 5.25784 3.5
    endloop
  endfacet
  facet normal 0 0 1
    outer loop
      vertex -0.803444 -2.47275 3.5
      vertex -2.20875 -5.57866 3.5
      vertex -1.8541 -5.70634 3.5
    endloop
  endfacet
  facet normal -0 0 1
    outer loop
      vertex -3.52671 4.8541 3.5
      vertex -1.39315 2.19525 3.5
      vertex -3.21496 5.06597 3.5
    endloop
  endfacet
  facet normal 0 0 1
    outer loop
      vertex -1.10703 -2.35255 3.5
      vertex -2.55468 -5.42896 3.5
      vertex -2.20875 -5.57866 3.5
    endloop
  endfacet
  facet normal 0 0 1
    outer loop
      vertex -1.39315 2.19525 3.5
      vertex -3.52671 4.8541 3.5
      vertex -1.55 2.08129 3.5
    endloop
  endfacet
  facet normal 0 0 1
    outer loop
      vertex -1.10703 -2.35255 3.5
      vertex -2.89052 -5.25784 3.5
      vertex -2.55468 -5.42896 3.5
    endloop
  endfacet
  facet normal -0 0 1
    outer loop
      vertex -3.82454 4.62308 3.5
      vertex -1.55 2.08129 3.5
      vertex -3.52671 4.8541 3.5
    endloop
  endfacet
  facet normal 0 0 1
    outer loop
      vertex -1.39315 -2.19525 3.5
      vertex -3.21496 -5.06597 3.5
      vertex -2.89052 -5.25784 3.5
    endloop
  endfacet
  facet normal -0 0 1
    outer loop
      vertex -4.10728 4.37381 3.5
      vertex -1.55 2.08129 3.5
      vertex -3.82454 4.62308 3.5
    endloop
  endfacet
  facet normal 0 0 1
    outer loop
      vertex -1.39315 -2.19525 3.5
      vertex -3.52671 -4.8541 3.5
      vertex -3.21496 -5.06597 3.5
    endloop
  endfacet
  facet normal -0 0 1
    outer loop
      vertex -4.37381 4.10728 3.5
      vertex -1.55 2.08129 3.5
      vertex -4.10728 4.37381 3.5
    endloop
  endfacet
  facet normal 0 0 1
    outer loop
      vertex -1.55 -2.08129 3.5
      vertex -3.82454 -4.62308 3.5
      vertex -3.52671 -4.8541 3.5
    endloop
  endfacet
  facet normal -0 0 1
    outer loop
      vertex -4.62308 3.82454 3.5
      vertex -1.55 2.08129 3.5
      vertex -4.37381 4.10728 3.5
    endloop
  endfacet
  facet normal 0 0 1
    outer loop
      vertex -1.55 -2.08129 3.5
      vertex -4.10728 -4.37381 3.5
      vertex -3.82454 -4.62308 3.5
    endloop
  endfacet
  facet normal -0 0 1
    outer loop
      vertex -4.8541 3.52671 3.5
      vertex -1.55 2.08129 3.5
      vertex -4.62308 3.82454 3.5
    endloop
  endfacet
  facet normal 0 0 1
    outer loop
      vertex -1.55 -2.08129 3.5
      vertex -4.37381 -4.10728 3.5
      vertex -4.10728 -4.37381 3.5
    endloop
  endfacet
  facet normal -0 0 1
    outer loop
      vertex -5.06597 3.21496 3.5
      vertex -1.55 2.08129 3.5
      vertex -4.8541 3.52671 3.5
    endloop
  endfacet
  facet normal 0 0 1
    outer loop
      vertex -1.55 -2.08129 3.5
      vertex -4.62308 -3.82454 3.5
      vertex -4.37381 -4.10728 3.5
    endloop
  endfacet
  facet normal -0 0 1
    outer loop
      vertex -5.25784 2.89052 3.5
      vertex -1.55 2.08129 3.5
      vertex -5.06597 3.21496 3.5
    endloop
  endfacet
  facet normal 0 0 1
    outer loop
      vertex -1.55 -2.08129 3.5
      vertex -4.8541 -3.52671 3.5
      vertex -4.62308 -3.82454 3.5
    endloop
  endfacet
  facet normal -0 0 1
    outer loop
      vertex -5.42896 2.55468 3.5
      vertex -1.55 2.08129 3.5
      vertex -5.25784 2.89052 3.5
    endloop
  endfacet
  facet normal 0 0 1
    outer loop
      vertex -1.55 -2.08129 3.5
      vertex -5.06597 -3.21496 3.5
      vertex -4.8541 -3.52671 3.5
    endloop
  endfacet
  facet normal -0 0 1
    outer loop
      vertex -5.57866 2.20875 3.5
      vertex -1.55 2.08129 3.5
      vertex -5.42896 2.55468 3.5
    endloop
  endfacet
  facet normal 0 0 1
    outer loop
      vertex -1.55 -2.08129 3.5
      vertex -5.25784 -2.89052 3.5
      vertex -5.06597 -3.21496 3.5
    endloop
  endfacet
  facet normal 0 0 1
    outer loop
      vertex -5.70634 1.8541 3.5
      vertex -1.55 2.08129 3.5
      vertex -5.57866 2.20875 3.5
    endloop
  endfacet
  facet normal 0 0 1
    outer loop
      vertex -1.55 -2.08129 3.5
      vertex -5.42896 -2.55468 3.5
      vertex -5.25784 -2.89052 3.5
    endloop
  endfacet
  facet normal 0 0 1
    outer loop
      vertex -5.8115 1.49214 3.5
      vertex -1.55 2.08129 3.5
      vertex -5.70634 1.8541 3.5
    endloop
  endfacet
  facet normal 0 0 1
    outer loop
      vertex -1.55 -2.08129 3.5
      vertex -5.57866 -2.20875 3.5
      vertex -5.42896 -2.55468 3.5
    endloop
  endfacet
  facet normal 0 0 1
    outer loop
      vertex -5.89372 1.12429 3.5
      vertex -1.55 2.08129 3.5
      vertex -5.8115 1.49214 3.5
    endloop
  endfacet
  facet normal 0 0 1
    outer loop
      vertex -1.55 -2.08129 3.5
      vertex -5.70634 -1.8541 3.5
      vertex -5.57866 -2.20875 3.5
    endloop
  endfacet
  facet normal 0 0 1
    outer loop
      vertex -5.95269 0.751999 3.5
      vertex -1.55 2.08129 3.5
      vertex -5.89372 1.12429 3.5
    endloop
  endfacet
  facet normal 0 0 1
    outer loop
      vertex -1.55 -2.08129 3.5
      vertex -5.8115 -1.49214 3.5
      vertex -5.70634 -1.8541 3.5
    endloop
  endfacet
  facet normal 0 0 1
    outer loop
      vertex -5.98816 0.376742 3.5
      vertex -1.55 2.08129 3.5
      vertex -5.95269 0.751999 3.5
    endloop
  endfacet
  facet normal 0 0 1
    outer loop
      vertex -1.55 -2.08129 3.5
      vertex -5.89372 -1.12429 3.5
      vertex -5.8115 -1.49214 3.5
    endloop
  endfacet
  facet normal 0 0 1
    outer loop
      vertex -6 0 3.5
      vertex -1.55 2.08129 3.5
      vertex -5.98816 0.376742 3.5
    endloop
  endfacet
  facet normal 0 0 1
    outer loop
      vertex -1.55 -2.08129 3.5
      vertex -5.95269 -0.751999 3.5
      vertex -5.89372 -1.12429 3.5
    endloop
  endfacet
  facet normal 0 0 1
    outer loop
      vertex -1.55 2.08129 3.5
      vertex -6 0 3.5
      vertex -1.55 -2.08129 3.5
    endloop
  endfacet
  facet normal 0 0 1
    outer loop
      vertex -1.55 -2.08129 3.5
      vertex -5.98816 -0.376742 3.5
      vertex -5.95269 -0.751999 3.5
    endloop
  endfacet
  facet normal 0 0 1
    outer loop
      vertex -1.55 -2.08129 3.5
      vertex -6 0 3.5
      vertex -5.98816 -0.376742 3.5
    endloop
  endfacet
  facet normal -0.397154 0.917752 0
    outer loop
      vertex -2.20875 5.57866 -3.5
      vertex -2.55468 5.42896 3.5
      vertex -2.20875 5.57866 3.5
    endloop
  endfacet
  facet normal -0.397154 0.917752 0
    outer loop
      vertex -2.55468 5.42896 3.5
      vertex -2.20875 5.57866 -3.5
      vertex -2.55468 5.42896 -3.5
    endloop
  endfacet
  facet normal -0.156447 0.987686 0
    outer loop
      vertex -0.751999 5.95269 -3.5
      vertex -1.12429 5.89372 3.5
      vertex -0.751999 5.95269 3.5
    endloop
  endfacet
  facet normal -0.156447 0.987686 0
    outer loop
      vertex -1.12429 5.89372 3.5
      vertex -0.751999 5.95269 -3.5
      vertex -1.12429 5.89372 -3.5
    endloop
  endfacet
  facet normal 0.338734 -0.940882 0
    outer loop
      vertex 1.8541 -5.70634 -3.5
      vertex 2.20875 -5.57866 3.5
      vertex 1.8541 -5.70634 3.5
    endloop
  endfacet
  facet normal 0.338734 -0.940882 0
    outer loop
      vertex 2.20875 -5.57866 3.5
      vertex 1.8541 -5.70634 -3.5
      vertex 2.20875 -5.57866 -3.5
    endloop
  endfacet
  facet normal 0.397154 -0.917752 0
    outer loop
      vertex 2.20875 -5.57866 -3.5
      vertex 2.55468 -5.42896 3.5
      vertex 2.20875 -5.57866 3.5
    endloop
  endfacet
  facet normal 0.397154 -0.917752 0
    outer loop
      vertex 2.55468 -5.42896 3.5
      vertex 2.20875 -5.57866 -3.5
      vertex 2.55468 -5.42896 -3.5
    endloop
  endfacet
  facet normal 0.278993 -0.960293 0
    outer loop
      vertex 1.49214 -5.8115 -3.5
      vertex 1.8541 -5.70634 3.5
      vertex 1.49214 -5.8115 3.5
    endloop
  endfacet
  facet normal 0.278993 -0.960293 0
    outer loop
      vertex 1.8541 -5.70634 3.5
      vertex 1.49214 -5.8115 -3.5
      vertex 1.8541 -5.70634 -3.5
    endloop
  endfacet
  facet normal 0.612906 -0.790156 0
    outer loop
      vertex 3.52671 -4.8541 -3.5
      vertex 3.82454 -4.62308 3.5
      vertex 3.52671 -4.8541 3.5
    endloop
  endfacet
  facet normal 0.612906 -0.790156 0
    outer loop
      vertex 3.82454 -4.62308 3.5
      vertex 3.52671 -4.8541 -3.5
      vertex 3.82454 -4.62308 -3.5
    endloop
  endfacet
  facet normal 0.827075 -0.562092 0
    outer loop
      vertex 4.8541 -3.52671 3.5
      vertex 5.06597 -3.21496 -3.5
      vertex 5.06597 -3.21496 3.5
    endloop
  endfacet
  facet normal 0.827075 -0.562092 0
    outer loop
      vertex 5.06597 -3.21496 -3.5
      vertex 4.8541 -3.52671 3.5
      vertex 4.8541 -3.52671 -3.5
    endloop
  endfacet
  facet normal 0.75011 -0.661314 0
    outer loop
      vertex 4.37381 -4.10728 3.5
      vertex 4.62308 -3.82454 -3.5
      vertex 4.62308 -3.82454 3.5
    endloop
  endfacet
  facet normal 0.75011 -0.661314 0
    outer loop
      vertex 4.62308 -3.82454 -3.5
      vertex 4.37381 -4.10728 3.5
      vertex 4.37381 -4.10728 -3.5
    endloop
  endfacet
  facet normal 0.917752 -0.397154 0
    outer loop
      vertex 5.42896 -2.55468 3.5
      vertex 5.57866 -2.20875 -3.5
      vertex 5.57866 -2.20875 3.5
    endloop
  endfacet
  facet normal 0.917752 -0.397154 0
    outer loop
      vertex 5.57866 -2.20875 -3.5
      vertex 5.42896 -2.55468 3.5
      vertex 5.42896 -2.55468 -3.5
    endloop
  endfacet
  facet normal 0.987686 -0.156447 0
    outer loop
      vertex 5.89372 -1.12429 3.5
      vertex 5.95269 -0.751999 -3.5
      vertex 5.95269 -0.751999 3.5
    endloop
  endfacet
  facet normal 0.987686 -0.156447 0
    outer loop
      vertex 5.95269 -0.751999 -3.5
      vertex 5.89372 -1.12429 3.5
      vertex 5.89372 -1.12429 -3.5
    endloop
  endfacet
  facet normal -0.562092 -0.827075 0
    outer loop
      vertex -3.52671 -4.8541 -3.5
      vertex -3.21496 -5.06597 3.5
      vertex -3.52671 -4.8541 3.5
    endloop
  endfacet
  facet normal -0.562092 -0.827075 -0
    outer loop
      vertex -3.21496 -5.06597 3.5
      vertex -3.52671 -4.8541 -3.5
      vertex -3.21496 -5.06597 -3.5
    endloop
  endfacet
  facet normal -0.453993 -0.891005 0
    outer loop
      vertex -2.89052 -5.25784 -3.5
      vertex -2.55468 -5.42896 3.5
      vertex -2.89052 -5.25784 3.5
    endloop
  endfacet
  facet normal -0.453993 -0.891005 -0
    outer loop
      vertex -2.55468 -5.42896 3.5
      vertex -2.89052 -5.25784 -3.5
      vertex -2.55468 -5.42896 -3.5
    endloop
  endfacet
  facet normal -0.509035 -0.860746 0
    outer loop
      vertex -3.21496 -5.06597 -3.5
      vertex -2.89052 -5.25784 3.5
      vertex -3.21496 -5.06597 3.5
    endloop
  endfacet
  facet normal -0.509035 -0.860746 -0
    outer loop
      vertex -2.89052 -5.25784 3.5
      vertex -3.21496 -5.06597 -3.5
      vertex -2.89052 -5.25784 -3.5
    endloop
  endfacet
  facet normal -0.338734 -0.940882 0
    outer loop
      vertex -2.20875 -5.57866 -3.5
      vertex -1.8541 -5.70634 3.5
      vertex -2.20875 -5.57866 3.5
    endloop
  endfacet
  facet normal -0.338734 -0.940882 -0
    outer loop
      vertex -1.8541 -5.70634 3.5
      vertex -2.20875 -5.57866 -3.5
      vertex -1.8541 -5.70634 -3.5
    endloop
  endfacet
  facet normal -0.156447 -0.987686 0
    outer loop
      vertex -1.12429 -5.89372 -3.5
      vertex -0.751999 -5.95269 3.5
      vertex -1.12429 -5.89372 3.5
    endloop
  endfacet
  facet normal -0.156447 -0.987686 -0
    outer loop
      vertex -0.751999 -5.95269 3.5
      vertex -1.12429 -5.89372 -3.5
      vertex -0.751999 -5.95269 -3.5
    endloop
  endfacet
  facet normal -0.0941024 -0.995563 0
    outer loop
      vertex -0.751999 -5.95269 -3.5
      vertex -0.376742 -5.98816 3.5
      vertex -0.751999 -5.95269 3.5
    endloop
  endfacet
  facet normal -0.0941024 -0.995563 -0
    outer loop
      vertex -0.376742 -5.98816 3.5
      vertex -0.751999 -5.95269 -3.5
      vertex -0.376742 -5.98816 -3.5
    endloop
  endfacet
  facet normal -0.75011 -0.661314 0
    outer loop
      vertex -4.37381 -4.10728 -3.5
      vertex -4.62308 -3.82454 3.5
      vertex -4.62308 -3.82454 -3.5
    endloop
  endfacet
  facet normal -0.75011 -0.661314 0
    outer loop
      vertex -4.62308 -3.82454 3.5
      vertex -4.37381 -4.10728 -3.5
      vertex -4.37381 -4.10728 3.5
    endloop
  endfacet
  facet normal -0.917752 -0.397154 0
    outer loop
      vertex -5.42896 -2.55468 -3.5
      vertex -5.57866 -2.20875 3.5
      vertex -5.57866 -2.20875 -3.5
    endloop
  endfacet
  facet normal -0.917752 -0.397154 0
    outer loop
      vertex -5.57866 -2.20875 3.5
      vertex -5.42896 -2.55468 -3.5
      vertex -5.42896 -2.55468 3.5
    endloop
  endfacet
  facet normal -0.891005 -0.453993 0
    outer loop
      vertex -5.25784 -2.89052 -3.5
      vertex -5.42896 -2.55468 3.5
      vertex -5.42896 -2.55468 -3.5
    endloop
  endfacet
  facet normal -0.891005 -0.453993 0
    outer loop
      vertex -5.42896 -2.55468 3.5
      vertex -5.25784 -2.89052 -3.5
      vertex -5.25784 -2.89052 3.5
    endloop
  endfacet
  facet normal -0.975919 -0.218133 0
    outer loop
      vertex -5.8115 -1.49214 -3.5
      vertex -5.89372 -1.12429 3.5
      vertex -5.89372 -1.12429 -3.5
    endloop
  endfacet
  facet normal -0.975919 -0.218133 0
    outer loop
      vertex -5.89372 -1.12429 3.5
      vertex -5.8115 -1.49214 -3.5
      vertex -5.8115 -1.49214 3.5
    endloop
  endfacet
  facet normal -0.995563 -0.0941024 0
    outer loop
      vertex -5.95269 -0.751999 -3.5
      vertex -5.98816 -0.376742 3.5
      vertex -5.98816 -0.376742 -3.5
    endloop
  endfacet
  facet normal -0.995563 -0.0941024 0
    outer loop
      vertex -5.98816 -0.376742 3.5
      vertex -5.95269 -0.751999 -3.5
      vertex -5.95269 -0.751999 3.5
    endloop
  endfacet
  facet normal 0.995563 0.0941024 0
    outer loop
      vertex 5.98816 0.376742 3.5
      vertex 5.95269 0.751999 -3.5
      vertex 5.95269 0.751999 3.5
    endloop
  endfacet
  facet normal 0.995563 0.0941024 0
    outer loop
      vertex 5.95269 0.751999 -3.5
      vertex 5.98816 0.376742 3.5
      vertex 5.98816 0.376742 -3.5
    endloop
  endfacet
  facet normal -0.790156 0.612906 0
    outer loop
      vertex -4.8541 3.52671 -3.5
      vertex -4.62308 3.82454 3.5
      vertex -4.62308 3.82454 -3.5
    endloop
  endfacet
  facet normal -0.790156 0.612906 0
    outer loop
      vertex -4.62308 3.82454 3.5
      vertex -4.8541 3.52671 -3.5
      vertex -4.8541 3.52671 3.5
    endloop
  endfacet
  facet normal -0.612906 0.790156 0
    outer loop
      vertex -3.52671 4.8541 -3.5
      vertex -3.82454 4.62308 3.5
      vertex -3.52671 4.8541 3.5
    endloop
  endfacet
  facet normal -0.612906 0.790156 0
    outer loop
      vertex -3.82454 4.62308 3.5
      vertex -3.52671 4.8541 -3.5
      vertex -3.82454 4.62308 -3.5
    endloop
  endfacet
  facet normal -0.218133 0.975919 0
    outer loop
      vertex -1.12429 5.89372 -3.5
      vertex -1.49214 5.8115 3.5
      vertex -1.12429 5.89372 3.5
    endloop
  endfacet
  facet normal -0.218133 0.975919 0
    outer loop
      vertex -1.49214 5.8115 3.5
      vertex -1.12429 5.89372 -3.5
      vertex -1.49214 5.8115 -3.5
    endloop
  endfacet
  facet normal -0.0941024 0.995563 0
    outer loop
      vertex -0.376742 5.98816 -3.5
      vertex -0.751999 5.95269 3.5
      vertex -0.376742 5.98816 3.5
    endloop
  endfacet
  facet normal -0.0941024 0.995563 0
    outer loop
      vertex -0.751999 5.95269 3.5
      vertex -0.376742 5.98816 -3.5
      vertex -0.751999 5.95269 -3.5
    endloop
  endfacet
  facet normal 0.156447 -0.987686 0
    outer loop
      vertex 0.751999 -5.95269 -3.5
      vertex 1.12429 -5.89372 3.5
      vertex 0.751999 -5.95269 3.5
    endloop
  endfacet
  facet normal 0.156447 -0.987686 0
    outer loop
      vertex 1.12429 -5.89372 3.5
      vertex 0.751999 -5.95269 -3.5
      vertex 1.12429 -5.89372 -3.5
    endloop
  endfacet
  facet normal 0.661314 -0.75011 0
    outer loop
      vertex 3.82454 -4.62308 -3.5
      vertex 4.10728 -4.37381 3.5
      vertex 3.82454 -4.62308 3.5
    endloop
  endfacet
  facet normal 0.661314 -0.75011 0
    outer loop
      vertex 4.10728 -4.37381 3.5
      vertex 3.82454 -4.62308 -3.5
      vertex 4.10728 -4.37381 -3.5
    endloop
  endfacet
  facet normal 0.562092 -0.827075 0
    outer loop
      vertex 3.21496 -5.06597 -3.5
      vertex 3.52671 -4.8541 3.5
      vertex 3.21496 -5.06597 3.5
    endloop
  endfacet
  facet normal 0.562092 -0.827075 0
    outer loop
      vertex 3.52671 -4.8541 3.5
      vertex 3.21496 -5.06597 -3.5
      vertex 3.52671 -4.8541 -3.5
    endloop
  endfacet
  facet normal 0.860746 -0.509035 0
    outer loop
      vertex 5.06597 -3.21496 3.5
      vertex 5.25784 -2.89052 -3.5
      vertex 5.25784 -2.89052 3.5
    endloop
  endfacet
  facet normal 0.860746 -0.509035 0
    outer loop
      vertex 5.25784 -2.89052 -3.5
      vertex 5.06597 -3.21496 3.5
      vertex 5.06597 -3.21496 -3.5
    endloop
  endfacet
  facet normal 0.790156 -0.612906 0
    outer loop
      vertex 4.62308 -3.82454 3.5
      vertex 4.8541 -3.52671 -3.5
      vertex 4.8541 -3.52671 3.5
    endloop
  endfacet
  facet normal 0.790156 -0.612906 0
    outer loop
      vertex 4.8541 -3.52671 -3.5
      vertex 4.62308 -3.82454 3.5
      vertex 4.62308 -3.82454 -3.5
    endloop
  endfacet
  facet normal 0.975919 -0.218133 0
    outer loop
      vertex 5.8115 -1.49214 3.5
      vertex 5.89372 -1.12429 -3.5
      vertex 5.89372 -1.12429 3.5
    endloop
  endfacet
  facet normal 0.975919 -0.218133 0
    outer loop
      vertex 5.89372 -1.12429 -3.5
      vertex 5.8115 -1.49214 3.5
      vertex 5.8115 -1.49214 -3.5
    endloop
  endfacet
  facet normal -0.612906 -0.790156 0
    outer loop
      vertex -3.82454 -4.62308 -3.5
      vertex -3.52671 -4.8541 3.5
      vertex -3.82454 -4.62308 3.5
    endloop
  endfacet
  facet normal -0.612906 -0.790156 -0
    outer loop
      vertex -3.52671 -4.8541 3.5
      vertex -3.82454 -4.62308 -3.5
      vertex -3.52671 -4.8541 -3.5
    endloop
  endfacet
  facet normal -0.218133 -0.975919 0
    outer loop
      vertex -1.49214 -5.8115 -3.5
      vertex -1.12429 -5.89372 3.5
      vertex -1.49214 -5.8115 3.5
    endloop
  endfacet
  facet normal -0.218133 -0.975919 -0
    outer loop
      vertex -1.12429 -5.89372 3.5
      vertex -1.49214 -5.8115 -3.5
      vertex -1.12429 -5.89372 -3.5
    endloop
  endfacet
  facet normal -0.960293 -0.278993 0
    outer loop
      vertex -5.70634 -1.8541 -3.5
      vertex -5.8115 -1.49214 3.5
      vertex -5.8115 -1.49214 -3.5
    endloop
  endfacet
  facet normal -0.960293 -0.278993 0
    outer loop
      vertex -5.8115 -1.49214 3.5
      vertex -5.70634 -1.8541 -3.5
      vertex -5.70634 -1.8541 3.5
    endloop
  endfacet
  facet normal -0.987686 -0.156447 0
    outer loop
      vertex -5.89372 -1.12429 -3.5
      vertex -5.95269 -0.751999 3.5
      vertex -5.95269 -0.751999 -3.5
    endloop
  endfacet
  facet normal -0.987686 -0.156447 0
    outer loop
      vertex -5.95269 -0.751999 3.5
      vertex -5.89372 -1.12429 -3.5
      vertex -5.89372 -1.12429 3.5
    endloop
  endfacet
  facet normal 0.995563 -0.0941024 0
    outer loop
      vertex 5.95269 -0.751999 3.5
      vertex 5.98816 -0.376742 -3.5
      vertex 5.98816 -0.376742 3.5
    endloop
  endfacet
  facet normal 0.995563 -0.0941024 0
    outer loop
      vertex 5.98816 -0.376742 -3.5
      vertex 5.95269 -0.751999 3.5
      vertex 5.95269 -0.751999 -3.5
    endloop
  endfacet
  facet normal 0 -1 0
    outer loop
      vertex -0.163255 2.59487 -3.5
      vertex 0.163255 2.59487 3.5
      vertex -0.163255 2.59487 3.5
    endloop
  endfacet
  facet normal 0 -1 -0
    outer loop
      vertex 0.163255 2.59487 3.5
      vertex -0.163255 2.59487 -3.5
      vertex 0.163255 2.59487 -3.5
    endloop
  endfacet
  facet normal 0 1 -0
    outer loop
      vertex 0.163255 -2.59487 -3.5
      vertex -0.163255 -2.59487 3.5
      vertex 0.163255 -2.59487 3.5
    endloop
  endfacet
  facet normal 0 1 0
    outer loop
      vertex -0.163255 -2.59487 3.5
      vertex 0.163255 -2.59487 -3.5
      vertex -0.163255 -2.59487 -3.5
    endloop
  endfacet
  facet normal 0.368129 -0.929775 0
    outer loop
      vertex -1.10703 2.35255 -3.5
      vertex -0.803444 2.47275 3.5
      vertex -1.10703 2.35255 3.5
    endloop
  endfacet
  facet normal 0.368129 -0.929775 0
    outer loop
      vertex -0.803444 2.47275 3.5
      vertex -1.10703 2.35255 -3.5
      vertex -0.803444 2.47275 -3.5
    endloop
  endfacet
  facet normal -0.368129 -0.929775 0
    outer loop
      vertex 0.803444 2.47275 -3.5
      vertex 1.10703 2.35255 3.5
      vertex 0.803444 2.47275 3.5
    endloop
  endfacet
  facet normal -0.368129 -0.929775 -0
    outer loop
      vertex 1.10703 2.35255 3.5
      vertex 0.803444 2.47275 -3.5
      vertex 1.10703 2.35255 -3.5
    endloop
  endfacet
  facet normal -0.24869 -0.968583 0
    outer loop
      vertex 0.487191 2.55395 -3.5
      vertex 0.803444 2.47275 3.5
      vertex 0.487191 2.55395 3.5
    endloop
  endfacet
  facet normal -0.24869 -0.968583 -0
    outer loop
      vertex 0.803444 2.47275 3.5
      vertex 0.487191 2.55395 -3.5
      vertex 0.803444 2.47275 -3.5
    endloop
  endfacet
  facet normal -0.587791 -0.809013 0
    outer loop
      vertex 1.39315 2.19525 -3.5
      vertex 1.55 2.08129 3.5
      vertex 1.39315 2.19525 3.5
    endloop
  endfacet
  facet normal -0.587791 -0.809013 -0
    outer loop
      vertex 1.55 2.08129 3.5
      vertex 1.39315 2.19525 -3.5
      vertex 1.55 2.08129 -3.5
    endloop
  endfacet
  facet normal 0.481764 -0.876301 0
    outer loop
      vertex -1.39315 2.19525 -3.5
      vertex -1.10703 2.35255 3.5
      vertex -1.39315 2.19525 3.5
    endloop
  endfacet
  facet normal 0.481764 -0.876301 0
    outer loop
      vertex -1.10703 2.35255 3.5
      vertex -1.39315 2.19525 -3.5
      vertex -1.10703 2.35255 -3.5
    endloop
  endfacet
  facet normal 0.24869 -0.968583 0
    outer loop
      vertex -0.803444 2.47275 -3.5
      vertex -0.487191 2.55395 3.5
      vertex -0.803444 2.47275 3.5
    endloop
  endfacet
  facet normal 0.24869 -0.968583 0
    outer loop
      vertex -0.487191 2.55395 3.5
      vertex -0.803444 2.47275 -3.5
      vertex -0.487191 2.55395 -3.5
    endloop
  endfacet
  facet normal -0.125325 0.992116 0
    outer loop
      vertex 0.487191 -2.55395 -3.5
      vertex 0.163255 -2.59487 3.5
      vertex 0.487191 -2.55395 3.5
    endloop
  endfacet
  facet normal -0.125325 0.992116 0
    outer loop
      vertex 0.163255 -2.59487 3.5
      vertex 0.487191 -2.55395 -3.5
      vertex 0.163255 -2.59487 -3.5
    endloop
  endfacet
  facet normal -0.125325 -0.992116 0
    outer loop
      vertex 0.163255 2.59487 -3.5
      vertex 0.487191 2.55395 3.5
      vertex 0.163255 2.59487 3.5
    endloop
  endfacet
  facet normal -0.125325 -0.992116 -0
    outer loop
      vertex 0.487191 2.55395 3.5
      vertex 0.163255 2.59487 -3.5
      vertex 0.487191 2.55395 -3.5
    endloop
  endfacet
  facet normal -0.481764 -0.876301 0
    outer loop
      vertex 1.10703 2.35255 -3.5
      vertex 1.39315 2.19525 3.5
      vertex 1.10703 2.35255 3.5
    endloop
  endfacet
  facet normal -0.481764 -0.876301 -0
    outer loop
      vertex 1.39315 2.19525 3.5
      vertex 1.10703 2.35255 -3.5
      vertex 1.39315 2.19525 -3.5
    endloop
  endfacet
  facet normal 0.587791 -0.809013 0
    outer loop
      vertex -1.55 2.08129 -3.5
      vertex -1.39315 2.19525 3.5
      vertex -1.55 2.08129 3.5
    endloop
  endfacet
  facet normal 0.587791 -0.809013 0
    outer loop
      vertex -1.39315 2.19525 3.5
      vertex -1.55 2.08129 -3.5
      vertex -1.39315 2.19525 -3.5
    endloop
  endfacet
  facet normal 0.125325 -0.992116 0
    outer loop
      vertex -0.487191 2.55395 -3.5
      vertex -0.163255 2.59487 3.5
      vertex -0.487191 2.55395 3.5
    endloop
  endfacet
  facet normal 0.125325 -0.992116 0
    outer loop
      vertex -0.163255 2.59487 3.5
      vertex -0.487191 2.55395 -3.5
      vertex -0.163255 2.59487 -3.5
    endloop
  endfacet
  facet normal -0.481764 0.876301 0
    outer loop
      vertex 1.39315 -2.19525 -3.5
      vertex 1.10703 -2.35255 3.5
      vertex 1.39315 -2.19525 3.5
    endloop
  endfacet
  facet normal -0.481764 0.876301 0
    outer loop
      vertex 1.10703 -2.35255 3.5
      vertex 1.39315 -2.19525 -3.5
      vertex 1.10703 -2.35255 -3.5
    endloop
  endfacet
  facet normal 0.24869 0.968583 -0
    outer loop
      vertex -0.487191 -2.55395 -3.5
      vertex -0.803444 -2.47275 3.5
      vertex -0.487191 -2.55395 3.5
    endloop
  endfacet
  facet normal 0.24869 0.968583 0
    outer loop
      vertex -0.803444 -2.47275 3.5
      vertex -0.487191 -2.55395 -3.5
      vertex -0.803444 -2.47275 -3.5
    endloop
  endfacet
  facet normal -0.368129 0.929775 0
    outer loop
      vertex 1.10703 -2.35255 -3.5
      vertex 0.803444 -2.47275 3.5
      vertex 1.10703 -2.35255 3.5
    endloop
  endfacet
  facet normal -0.368129 0.929775 0
    outer loop
      vertex 0.803444 -2.47275 3.5
      vertex 1.10703 -2.35255 -3.5
      vertex 0.803444 -2.47275 -3.5
    endloop
  endfacet
  facet normal -0.24869 0.968583 0
    outer loop
      vertex 0.803444 -2.47275 -3.5
      vertex 0.487191 -2.55395 3.5
      vertex 0.803444 -2.47275 3.5
    endloop
  endfacet
  facet normal -0.24869 0.968583 0
    outer loop
      vertex 0.487191 -2.55395 3.5
      vertex 0.803444 -2.47275 -3.5
      vertex 0.487191 -2.55395 -3.5
    endloop
  endfacet
  facet normal 0.125325 0.992116 -0
    outer loop
      vertex -0.163255 -2.59487 -3.5
      vertex -0.487191 -2.55395 3.5
      vertex -0.163255 -2.59487 3.5
    endloop
  endfacet
  facet normal 0.125325 0.992116 0
    outer loop
      vertex -0.487191 -2.55395 3.5
      vertex -0.163255 -2.59487 -3.5
      vertex -0.487191 -2.55395 -3.5
    endloop
  endfacet
  facet normal -0.587791 0.809013 0
    outer loop
      vertex 1.55 -2.08129 -3.5
      vertex 1.39315 -2.19525 3.5
      vertex 1.55 -2.08129 3.5
    endloop
  endfacet
  facet normal -0.587791 0.809013 0
    outer loop
      vertex 1.39315 -2.19525 3.5
      vertex 1.55 -2.08129 -3.5
      vertex 1.39315 -2.19525 -3.5
    endloop
  endfacet
  facet normal 0.587791 0.809013 -0
    outer loop
      vertex -1.39315 -2.19525 -3.5
      vertex -1.55 -2.08129 3.5
      vertex -1.39315 -2.19525 3.5
    endloop
  endfacet
  facet normal 0.587791 0.809013 0
    outer loop
      vertex -1.55 -2.08129 3.5
      vertex -1.39315 -2.19525 -3.5
      vertex -1.55 -2.08129 -3.5
    endloop
  endfacet
  facet normal 0.368129 0.929775 -0
    outer loop
      vertex -0.803444 -2.47275 -3.5
      vertex -1.10703 -2.35255 3.5
      vertex -0.803444 -2.47275 3.5
    endloop
  endfacet
  facet normal 0.368129 0.929775 0
    outer loop
      vertex -1.10703 -2.35255 3.5
      vertex -0.803444 -2.47275 -3.5
      vertex -1.10703 -2.35255 -3.5
    endloop
  endfacet
  facet normal 0.481764 0.876301 -0
    outer loop
      vertex -1.10703 -2.35255 -3.5
      vertex -1.39315 -2.19525 3.5
      vertex -1.10703 -2.35255 3.5
    endloop
  endfacet
  facet normal 0.481764 0.876301 0
    outer loop
      vertex -1.39315 -2.19525 3.5
      vertex -1.10703 -2.35255 -3.5
      vertex -1.39315 -2.19525 -3.5
    endloop
  endfacet
  facet normal -1 0 0
    outer loop
      vertex 1.55 -2.08129 -3.5
      vertex 1.55 2.08129 3.5
      vertex 1.55 2.08129 -3.5
    endloop
  endfacet
  facet normal -1 -0 0
    outer loop
      vertex 1.55 2.08129 3.5
      vertex 1.55 -2.08129 -3.5
      vertex 1.55 -2.08129 3.5
    endloop
  endfacet
  facet normal 1 -0 0
    outer loop
      vertex -1.55 -2.08129 3.5
      vertex -1.55 2.08129 -3.5
      vertex -1.55 2.08129 3.5
    endloop
  endfacet
  facet normal 1 0 0
    outer loop
      vertex -1.55 2.08129 -3.5
      vertex -1.55 -2.08129 3.5
      vertex -1.55 -2.08129 -3.5
    endloop
  endfacet
endsolid OpenSCAD_Model
